<?xml version="1.0" encoding="UTF-8"?>
<svg width="50px" height="50px" viewBox="0 0 50 50" version="1.1" xmlns="http://www.w3.org/2000/svg" xmlns:xlink="http://www.w3.org/1999/xlink">
    <!-- Generator: Sketch 51.3 (57544) - http://www.bohemiancoding.com/sketch -->
    <title>american express</title>
    <desc>Created with Sketch.</desc>
    <defs></defs>
    <g id="Symbols" stroke="none" stroke-width="1" fill="none" fill-rule="evenodd">
        <g id="11---Footer" transform="translate(-1108.000000, -128.000000)">
            <g id="cartões">
                <g transform="translate(998.000000, 68.000000)">
                    <g id="american-express" transform="translate(110.000000, 60.000000)">
                        <polygon id="Fill-1" fill="#016FD0" points="0 50 50 50 50 0 0 0"></polygon>
                        <path d="M9.70611111,34.8413889 L9.70611111,26.9916667 L18.0177778,26.9916667 L18.9094444,28.1538889 L19.8308333,26.9916667 L50,26.9916667 L50,34.3 C50,34.3 49.2111111,34.8336111 48.2986111,34.8413889 L31.5930556,34.8413889 L30.5877778,33.6038889 L30.5877778,34.8413889 L27.2930556,34.8413889 L27.2930556,32.7291667 C27.2930556,32.7291667 26.8430556,33.0238889 25.87,33.0238889 L24.7486111,33.0238889 L24.7486111,34.8413889 L19.7602778,34.8413889 L18.8697222,33.6541667 L17.9655556,34.8413889 L9.70611111,34.8413889" id="Fill-2" fill="#FFFFFF"></path>
                        <path d="M0,21.075 L1.87444444,16.7052778 L5.11555556,16.7052778 L6.17944444,19.1530556 L6.17944444,16.7052778 L10.2086111,16.7052778 L10.8419444,18.4744444 L11.4558333,16.7052778 L29.5436111,16.7052778 L29.5436111,17.5947222 C29.5436111,17.5947222 30.4944444,16.7052778 32.0572222,16.7052778 L37.9261111,16.7258333 L38.9713889,19.1413889 L38.9713889,16.7052778 L42.3433333,16.7052778 L43.2713889,18.0930556 L43.2713889,16.7052778 L46.6744444,16.7052778 L46.6744444,24.5552778 L43.2713889,24.5552778 L42.3819444,23.1633333 L42.3819444,24.5552778 L37.4277778,24.5552778 L36.9294444,23.3177778 L35.5977778,23.3177778 L35.1077778,24.5552778 L31.7477778,24.5552778 C30.4030556,24.5552778 29.5436111,23.6838889 29.5436111,23.6838889 L29.5436111,24.5552778 L24.4780556,24.5552778 L23.4725,23.3177778 L23.4725,24.5552778 L4.63555556,24.5552778 L4.1375,23.3177778 L2.81,23.3177778 L2.31583333,24.5552778 L0,24.5552778 L0,21.075" id="Fill-3" fill="#FFFFFF"></path>
                        <path d="M2.53777778,17.6730556 L0.00972222222,23.5508333 L1.65555556,23.5508333 L2.12194444,22.3738889 L4.83361111,22.3738889 L5.29777778,23.5508333 L6.98,23.5508333 L4.45416667,17.6730556 L2.53777778,17.6730556 Z M3.47305556,19.0411111 L4.29944444,21.0977778 L2.64388889,21.0977778 L3.47305556,19.0411111 Z" id="Fill-4" fill="#016FD0"></path>
                        <polyline id="Fill-5" fill="#016FD0" points="7.15388889 23.5497222 7.15388889 17.6722222 9.49277778 17.6808333 10.8530556 21.4705556 12.1808333 17.6722222 14.5011111 17.6722222 14.5011111 23.55 13.0316667 23.55 13.0316667 19.2188889 11.4738889 23.55 10.1852778 23.55 8.62333333 19.2188889 8.62333333 23.55 7.15388889 23.5497222"></polyline>
                        <polyline id="Fill-6" fill="#016FD0" points="15.5066667 23.5497222 15.5066667 17.6722222 20.3016667 17.6722222 20.3016667 18.9869444 16.9913889 18.9869444 16.9913889 19.9922222 20.2241667 19.9922222 20.2241667 21.2297222 16.9913889 21.2297222 16.9913889 22.2738889 20.3016667 22.2738889 20.3016667 23.5497222 15.5066667 23.5497222"></polyline>
                        <path d="M21.1522222,17.6730556 L21.1522222,23.5508333 L22.6216667,23.5508333 L22.6216667,21.4627778 L23.2405556,21.4627778 L25.0022222,23.5508333 L26.7980556,23.5508333 L24.8647222,21.3852778 C25.6580556,21.3183333 26.4766667,20.6372222 26.4766667,19.58 C26.4766667,18.3430556 25.5058333,17.6730556 24.4222222,17.6730556 L21.1522222,17.6730556 Z M22.6216667,18.9877778 L24.3013889,18.9877778 C24.7044444,18.9877778 24.9975,19.3030556 24.9975,19.6066667 C24.9975,19.9969444 24.6177778,20.2252778 24.3233333,20.2252778 L22.6216667,20.2252778 L22.6216667,18.9877778 Z" id="Fill-7" fill="#016FD0"></path>
                        <polygon id="Fill-8" fill="#016FD0" points="27.0763889 23.55 28.5769444 23.55 28.5769444 17.6722222 27.0763889 17.6722222"></polygon>
                        <path d="M32.1344444,23.5497222 L31.8108333,23.5497222 C30.2436111,23.5497222 29.2922222,22.3152778 29.2922222,20.635 C29.2922222,18.9133333 30.2330556,17.6722222 32.2119444,17.6722222 L33.8361111,17.6722222 L33.8361111,19.0641667 L32.1525,19.0641667 C31.3491667,19.0641667 30.7811111,19.6911111 30.7811111,20.6497222 C30.7811111,21.7880556 31.4308333,22.2661111 32.3666667,22.2661111 L32.7533333,22.2661111 L32.1344444,23.5497222" id="Fill-9" fill="#016FD0"></path>
                        <path d="M35.3319444,17.6730556 L32.8038889,23.5508333 L34.4497222,23.5508333 L34.9163889,22.3738889 L37.6280556,22.3738889 L38.0922222,23.5508333 L39.7741667,23.5508333 L37.2486111,17.6730556 L35.3319444,17.6730556 Z M36.2672222,19.0411111 L37.0938889,21.0977778 L35.4383333,21.0977778 L36.2672222,19.0411111 Z" id="Fill-10" fill="#016FD0"></path>
                        <polyline id="Fill-11" fill="#016FD0" points="39.9458333 23.5497222 39.9458333 17.6722222 41.8138889 17.6722222 44.1994444 21.365 44.1994444 17.6722222 45.6688889 17.6722222 45.6688889 23.5497222 43.8611111 23.5497222 41.4152778 19.7602778 41.4152778 23.5497222 39.9458333 23.5497222"></polyline>
                        <polyline id="Fill-12" fill="#016FD0" points="10.7113889 33.8361111 10.7113889 27.9580556 15.5066667 27.9580556 15.5066667 29.2730556 12.1963889 29.2730556 12.1963889 30.2783333 15.4291667 30.2783333 15.4291667 31.5158333 12.1963889 31.5158333 12.1963889 32.56 15.5066667 32.56 15.5066667 33.8361111 10.7113889 33.8361111"></polyline>
                        <polyline id="Fill-13" fill="#016FD0" points="34.2072222 33.8361111 34.2072222 27.9580556 39.0022222 27.9580556 39.0022222 29.2730556 35.6922222 29.2730556 35.6922222 30.2783333 38.9094444 30.2783333 38.9094444 31.5158333 35.6922222 31.5158333 35.6922222 32.56 39.0022222 32.56 39.0022222 33.8361111 34.2072222 33.8361111"></polyline>
                        <polyline id="Fill-14" fill="#016FD0" points="15.6925 33.8361111 18.0272222 30.9333333 15.6372222 27.9583333 17.4883333 27.9583333 18.9119444 29.7975 20.3402778 27.9583333 22.1191667 27.9583333 19.7602778 30.8972222 22.0991667 33.8361111 20.2480556 33.8361111 18.8661111 32.0258333 17.5172222 33.8361111 15.6925 33.8361111"></polyline>
                        <path d="M22.2738889,27.9591667 L22.2738889,33.8372222 L23.7819444,33.8372222 L23.7819444,31.9808333 L25.3286111,31.9808333 C26.6375,31.9808333 27.6294444,31.2866667 27.6294444,29.9363889 C27.6294444,28.8175 26.8513889,27.9591667 25.5197222,27.9591667 L22.2738889,27.9591667 Z M23.7819444,29.2886111 L25.4108333,29.2886111 C25.8336111,29.2886111 26.1358333,29.5475 26.1358333,29.9652778 C26.1358333,30.3575 25.835,30.6419444 25.4061111,30.6419444 L23.7819444,30.6419444 L23.7819444,29.2886111 Z" id="Fill-15" fill="#016FD0"></path>
                        <path d="M28.2675,27.9580556 L28.2675,33.8361111 L29.7369444,33.8361111 L29.7369444,31.7477778 L30.3558333,31.7477778 L32.1175,33.8361111 L33.9133333,33.8361111 L31.9797222,31.6705556 C32.7733333,31.6036111 33.5919444,30.9225 33.5919444,29.865 C33.5919444,28.6283333 32.6211111,27.9583333 31.5375,27.9583333 L28.2675,27.9580556 Z M29.7369444,29.2730556 L31.4166667,29.2730556 C31.8197222,29.2730556 32.1127778,29.5883333 32.1127778,29.8916667 C32.1127778,30.2822222 31.7330556,30.5105556 31.4383333,30.5105556 L29.7369444,30.5105556 L29.7369444,29.2730556 Z" id="Fill-16" fill="#016FD0"></path>
                        <path d="M39.6827778,33.8361111 L39.6827778,32.56 L42.6236111,32.56 C43.0588889,32.56 43.2472222,32.3247222 43.2472222,32.0669444 C43.2472222,31.8197222 43.0594444,31.57 42.6236111,31.57 L41.2947222,31.57 C40.1397222,31.57 39.4963889,30.8661111 39.4963889,29.8097222 C39.4963889,28.8672222 40.0855556,27.9583333 41.8019444,27.9583333 L44.6636111,27.9583333 L44.0447222,29.2808333 L41.57,29.2808333 C41.0969444,29.2808333 40.9511111,29.5291667 40.9511111,29.7661111 C40.9511111,30.0097222 41.1311111,30.2783333 41.4925,30.2783333 L42.8847222,30.2783333 C44.1725,30.2783333 44.7311111,31.0088889 44.7311111,31.9655556 C44.7311111,32.9938889 44.1086111,33.8361111 42.8147222,33.8361111 L39.6827778,33.8361111" id="Fill-17" fill="#016FD0"></path>
                        <path d="M45.0761111,33.8361111 L45.0761111,32.56 L47.8925,32.56 C48.3275,32.56 48.5161111,32.3247222 48.5161111,32.0669444 C48.5161111,31.8197222 48.3280556,31.57 47.8925,31.57 L46.6880556,31.57 C45.5327778,31.57 44.8894444,30.8661111 44.8894444,29.8097222 C44.8894444,28.8672222 45.4786111,27.9583333 47.1952778,27.9583333 L50,27.9583333 L49.3813889,29.2808333 L46.9633333,29.2808333 C46.49,29.2808333 46.3444444,29.5291667 46.3444444,29.7661111 C46.3444444,30.0097222 46.5244444,30.2783333 46.8858333,30.2783333 L48.1533333,30.2783333 C49.4411111,30.2783333 50,31.0088889 50,31.9655556 C50,32.9938889 49.3772222,33.8361111 48.0833333,33.8361111 L45.0761111,33.8361111" id="Fill-18" fill="#016FD0"></path>
                    </g>
                </g>
            </g>
        </g>
    </g>
</svg>