<?xml version="1.0" encoding="UTF-8"?>
<svg width="70px" height="40px" viewBox="0 0 70 40" version="1.1" xmlns="http://www.w3.org/2000/svg" xmlns:xlink="http://www.w3.org/1999/xlink">
    <!-- Generator: Sketch 51.3 (57544) - http://www.bohemiancoding.com/sketch -->
    <title>diners club</title>
    <desc>Created with Sketch.</desc>
    <defs></defs>
    <g id="Symbols" stroke="none" stroke-width="1" fill="none" fill-rule="evenodd">
        <g id="11---Footer" transform="translate(-1198.000000, -68.000000)">
            <g id="cartões">
                <g transform="translate(998.000000, 68.000000)">
                    <g id="diners-club" transform="translate(200.000000, 0.000000)">
                        <rect id="Rectangle-12-Copy-2" fill="#FFFFFF" x="0" y="0" width="70" height="40" rx="3"></rect>
                        <g id="Group" transform="translate(13.000000, 5.000000)">
                            <path d="M23.8412308,17.3433333 C28.6215547,17.3661404 32.9852146,13.5047368 32.9852146,8.80684211 C32.9852146,3.67 28.6215547,0.119298246 23.8412308,0.120701754 L19.7269636,0.120701754 C14.8896356,0.119298246 10.9077247,3.67070175 10.9077247,8.80684211 C10.9077247,13.5057895 14.8896356,17.3661404 19.7269636,17.3433333 L23.8412308,17.3433333" id="Fill-2" fill="#006095"></path>
                            <path d="M21.5623158,13.3810526 L21.5623158,4.05315789 C23.466251,4.7722807 24.8177814,6.58754386 24.821166,8.71701754 C24.8177814,10.8461404 23.466251,12.6607018 21.5623158,13.3810526 M14.6733765,8.71701754 C14.6774737,6.58912281 16.0272227,4.7745614 17.9299109,4.05333333 L17.9299109,13.3792982 C16.0272227,12.6584211 14.6774737,10.8450877 14.6733765,8.71701754 M19.7465587,0.832807018 C15.3260729,0.834035088 11.7439028,4.36245614 11.7430121,8.71701754 C11.7439028,13.0707018 15.3260729,16.5982456 19.7465587,16.5996491 C24.1682915,16.5982456 27.750996,13.0707018 27.7515304,8.71701754 C27.750996,4.36245614 24.1682915,0.834035088 19.7465587,0.832807018" id="Fill-3" fill="#FFFFFE"></path>
                            <path d="M1.96521457,23.2207018 C1.96521457,23.9217544 2.47433198,24.0036842 2.92697976,24.0036842 C4.92461538,24.0036842 5.58034008,22.5196491 5.58034008,21.1626316 C5.58034008,19.4603509 4.47089879,18.2315789 2.6868502,18.2315789 C2.30706073,18.2315789 2.13248583,18.2580702 1.96521457,18.2677193 L1.96521457,23.2207018 Z M1.05902834,18.9498246 C1.05902834,18.1310526 0.62508502,18.1849123 0.209489879,18.1763158 L0.209489879,17.9396491 C0.569862348,17.9570175 0.939319838,17.9570175 1.30040486,17.9570175 C1.6885668,17.9570175 2.21549798,17.9396491 2.90008097,17.9396491 C5.29425101,17.9396491 6.59786235,19.5140351 6.59786235,21.1263158 C6.59786235,22.0282456 6.06166802,24.2952632 2.78874494,24.2952632 C2.31757085,24.2952632 1.8825587,24.2770175 1.44808097,24.2770175 C1.03248583,24.2770175 0.62508502,24.2859649 0.209489879,24.2952632 L0.209489879,24.0584211 C0.763676113,24.0036842 1.03248583,23.9854386 1.05902834,23.3663158 L1.05902834,18.9498246 Z" id="Fill-4" fill="#1A1919"></path>
                            <path d="M7.91109312,18.7319298 C7.67025101,18.7319298 7.45791093,18.5133333 7.45791093,18.2766667 C7.45791093,18.0485965 7.68022672,17.8387719 7.91109312,17.8387719 C8.15068826,17.8387719 8.36391903,18.0305263 8.36391903,18.2766667 C8.36391903,18.522807 8.16012955,18.7319298 7.91109312,18.7319298 M6.9217166,24.0584211 L7.09736032,24.0584211 C7.35565992,24.0584211 7.54074494,24.0584211 7.54074494,23.7573684 L7.54074494,21.2903509 C7.54074494,20.89 7.40233198,20.834386 7.05995142,20.6533333 L7.05995142,20.5075439 C7.49442915,20.3794737 8.01263158,20.207193 8.0491498,20.1798246 C8.11434818,20.1435088 8.16921457,20.1338596 8.21588664,20.1338596 C8.26148988,20.1338596 8.28055061,20.1885965 8.28055061,20.2619298 L8.28055061,23.7573684 C8.28055061,24.0584211 8.48398381,24.0584211 8.74317409,24.0584211 L8.89993522,24.0584211 L8.89993522,24.2952632 C8.58534413,24.2952632 8.26148988,24.2770175 7.92961943,24.2770175 C7.59650202,24.2770175 7.26356275,24.2859649 6.9217166,24.2952632 L6.9217166,24.0584211" id="Fill-5" fill="#1A1919"></path>
                            <path d="M9.77851012,21.3447368 C9.77851012,21.0082456 9.67625911,20.9173684 9.24267206,20.744386 L9.24267206,20.5712281 C9.63974089,20.4440351 10.0182834,20.3252632 10.4623806,20.1338596 C10.4903482,20.1338596 10.5174251,20.1526316 10.5174251,20.2245614 L10.5174251,20.8168421 C11.0448907,20.4440351 11.4980729,20.1338596 12.1183482,20.1338596 C12.9035789,20.1338596 13.1809393,20.6984211 13.1809393,21.4087719 L13.1809393,23.7573684 C13.1809393,24.0584211 13.3843725,24.0584211 13.6430283,24.0584211 L13.8097652,24.0584211 L13.8097652,24.2952632 C13.4853765,24.2952632 13.1620567,24.2770175 12.82983,24.2770175 C12.4963563,24.2770175 12.1637733,24.2859649 11.830834,24.2952632 L11.830834,24.0584211 L11.9973927,24.0584211 C12.256583,24.0584211 12.4404211,24.0584211 12.4404211,23.7573684 L12.4404211,21.3998246 C12.4404211,20.8803509 12.1183482,20.6259649 11.5907045,20.6259649 C11.294996,20.6259649 10.8234656,20.8622807 10.5174251,21.0629825 L10.5174251,23.7573684 C10.5174251,24.0584211 10.721749,24.0584211 10.9807611,24.0584211 L11.1469636,24.0584211 L11.1469636,24.2952632 C10.8234656,24.2952632 10.4992551,24.2770175 10.1663158,24.2770175 C9.83426721,24.2770175 9.50061538,24.2859649 9.16821053,24.2952632 L9.16821053,24.0584211 L9.33476923,24.0584211 C9.59360324,24.0584211 9.77851012,24.0584211 9.77851012,23.7573684 L9.77851012,21.3447368" id="Fill-6" fill="#1A1919"></path>
                            <path d="M16.1494251,21.4908772 C16.3802915,21.4908772 16.4071903,21.3722807 16.4071903,21.2631579 C16.4071903,20.7987719 16.1209231,20.4254386 15.6028988,20.4254386 C15.0392713,20.4254386 14.6511093,20.834386 14.5401296,21.4908772 L16.1494251,21.4908772 Z M14.5128745,21.7824561 C14.4936356,21.864386 14.4936356,22.0005263 14.5128745,22.3105263 C14.5672065,23.1754386 15.1324372,23.8854386 15.870996,23.8854386 C16.3802915,23.8854386 16.778251,23.6119298 17.1197409,23.2754386 L17.2488907,23.4029825 C16.8233198,23.9584211 16.2965668,24.4319298 15.5389474,24.4319298 C14.0684211,24.4319298 13.7727126,23.0294737 13.7727126,22.4470175 C13.7727126,20.6617544 14.9929555,20.1336842 15.6395951,20.1336842 C16.3891984,20.1336842 17.1942024,20.5980702 17.2025749,21.5633333 C17.2025749,21.6184211 17.2025749,21.6726316 17.1942024,21.7277193 L17.1101215,21.7824561 L14.5128745,21.7824561 Z" id="Fill-7" fill="#1A1919"></path>
                            <path d="M17.4156275,24.0584211 L17.6653765,24.0584211 C17.9233198,24.0584211 18.1084049,24.0584211 18.1084049,23.7573684 L18.1084049,21.1994737 C18.1084049,20.9173684 17.7665587,20.8624561 17.6276113,20.7894737 L17.6276113,20.6533333 C18.3025749,20.3708772 18.6725668,20.1336842 18.7568259,20.1336842 C18.8111579,20.1336842 18.8389474,20.1610526 18.8389474,20.2526316 L18.8389474,21.0719298 L18.8585425,21.0719298 C19.0888745,20.7168421 19.477749,20.1336842 20.0413765,20.1336842 C20.2727773,20.1336842 20.5683077,20.2884211 20.5683077,20.6163158 C20.5683077,20.8624561 20.3930202,21.0815789 20.1341862,21.0815789 C19.8464939,21.0815789 19.8464939,20.8624561 19.5233522,20.8624561 C19.3658785,20.8624561 18.8483887,21.0719298 18.8483887,21.6184211 L18.8483887,23.7573684 C18.8483887,24.0584211 19.0329393,24.0584211 19.2921296,24.0584211 L19.8094413,24.0584211 L19.8094413,24.2952632 C19.3008583,24.2859649 18.9139433,24.2770175 18.5156275,24.2770175 C18.1367287,24.2770175 17.7483887,24.2859649 17.4156275,24.2952632 L17.4156275,24.0584211" id="Fill-8" fill="#1A1919"></path>
                            <path d="M20.974996,23.0294737 C21.0952389,23.6301754 21.4648745,24.1403509 22.1401943,24.1403509 C22.6849393,24.1403509 22.8880162,23.8126316 22.8880162,23.4942105 C22.8880162,22.4196491 20.8734575,22.7652632 20.8734575,21.2998246 C20.8734575,20.7894737 21.2899433,20.1338596 22.3065749,20.1338596 C22.601749,20.1338596 22.9993522,20.2161404 23.3599028,20.3982456 L23.4249231,21.3263158 L23.2124049,21.3263158 C23.1199514,20.7531579 22.7964534,20.425614 22.2041457,20.425614 C21.8341538,20.425614 21.4834008,20.6350877 21.4834008,21.0263158 C21.4834008,22.0922807 23.6283563,21.7638596 23.6283563,23.1933333 C23.6283563,23.7938596 23.1384777,24.4319298 22.0377652,24.4319298 C21.6681296,24.4319298 21.2334737,24.3045614 20.9101538,24.1226316 L20.8082591,23.0754386 L20.974996,23.0294737" id="Fill-9" fill="#1A1919"></path>
                            <path d="M31.9765992,19.5873684 L31.7460891,19.5873684 C31.5699109,18.522807 30.8026721,18.094386 29.7675142,18.094386 C28.7036761,18.094386 27.1594008,18.7950877 27.1594008,20.9803509 C27.1594008,22.8205263 28.4918704,24.1403509 29.9150121,24.1403509 C30.8299271,24.1403509 31.5887935,23.5215789 31.7738785,22.5649123 L31.9863968,22.6192982 L31.7738785,23.9487719 C31.3855385,24.1863158 30.340583,24.4319298 29.7301053,24.4319298 C27.5671579,24.4319298 26.1990607,23.0568421 26.1990607,21.0082456 C26.1990607,19.1414035 27.8904777,17.8024561 29.7024939,17.8024561 C30.4512065,17.8024561 31.172664,18.0398246 31.8841457,18.2859649 L31.9765992,19.5873684" id="Fill-10" fill="#1A1919"></path>
                            <path d="M32.3100729,24.0584211 L32.485004,24.0584211 C32.7445506,24.0584211 32.9296356,24.0584211 32.9296356,23.7573684 L32.9296356,18.6864912 C32.9296356,18.094386 32.7910445,18.0761404 32.4395789,17.9761404 L32.4395789,17.8303509 C32.8093927,17.7122807 33.1975547,17.5484211 33.3917247,17.4385965 C33.4929069,17.384386 33.5673684,17.3382456 33.5944453,17.3382456 C33.6505587,17.3382456 33.6692632,17.3933333 33.6692632,17.4661404 L33.6692632,23.7573684 C33.6692632,24.0584211 33.8725182,24.0584211 34.1318866,24.0584211 L34.2879352,24.0584211 L34.2879352,24.2952632 C33.9745911,24.2952632 33.6505587,24.2770175 33.3179757,24.2770175 C32.9852146,24.2770175 32.6524534,24.2859649 32.3100729,24.2952632 L32.3100729,24.0584211" id="Fill-11" fill="#1A1919"></path>
                            <path d="M38.246332,23.7938596 C38.246332,23.9584211 38.3475142,23.967193 38.5046316,23.967193 C38.6156113,23.967193 38.7540243,23.9584211 38.8748016,23.9584211 L38.8748016,24.1501754 C38.476664,24.1863158 37.7186883,24.3775439 37.5426883,24.4319298 L37.4965506,24.4045614 L37.4965506,23.667193 C36.9425425,24.1133333 36.5167935,24.4319298 35.8596437,24.4319298 C35.3603239,24.4319298 34.8430121,24.1133333 34.8430121,23.3487719 L34.8430121,21.017193 C34.8430121,20.7805263 34.8061377,20.552807 34.2891822,20.5075439 L34.2891822,20.334386 C34.6219433,20.3252632 35.3603239,20.2707018 35.4811012,20.2707018 C35.5835304,20.2707018 35.5835304,20.334386 35.5835304,20.5347368 L35.5835304,22.8835088 C35.5835304,23.157193 35.5835304,23.94 36.3874656,23.94 C36.7017004,23.94 37.11783,23.7031579 37.5054575,23.3852632 L37.5054575,20.9350877 C37.5054575,20.7531579 37.0620729,20.6535088 36.7298462,20.5624561 L36.7298462,20.3982456 C37.5610364,20.3435088 38.0795951,20.2707018 38.1718704,20.2707018 C38.246332,20.2707018 38.246332,20.334386 38.246332,20.4349123 L38.246332,23.7938596" id="Fill-12" fill="#1A1919"></path>
                            <path d="M40.0857814,23.2659649 C40.0857814,23.6119298 40.4185425,24.1952632 41.0379271,24.1952632 C42.0273036,24.1952632 42.4430769,23.2387719 42.4430769,22.4280702 C42.4430769,21.4450877 41.6856356,20.6259649 40.9645344,20.6259649 C40.6214413,20.6259649 40.3353522,20.8447368 40.0857814,21.0540351 L40.0857814,23.2659649 Z M40.0857814,20.7894737 C40.4552389,20.4801754 40.954915,20.1336842 41.463498,20.1336842 C42.5358866,20.1336842 43.1827045,21.0540351 43.1827045,22.0463158 C43.1827045,23.2387719 42.2952227,24.4319298 40.9727287,24.4319298 C40.2892146,24.4319298 39.9284858,24.2133333 39.6878219,24.1133333 L39.4108178,24.3222807 L39.2173603,24.2226316 C39.2993036,23.6852632 39.346332,23.157193 39.346332,22.6017544 L39.346332,18.6866667 C39.346332,18.094386 39.2070283,18.0761404 38.855919,17.9761404 L38.855919,17.8305263 C39.2264453,17.7121053 39.6140729,17.5484211 39.8082429,17.4387719 C39.9099595,17.3845614 39.9835304,17.3384211 40.0122105,17.3384211 C40.0676113,17.3384211 40.0857814,17.3935088 40.0857814,17.4663158 L40.0857814,20.7894737 Z" id="Fill-13" fill="#1A1919"></path>
                            <path d="M0.198979757,29.5892982 L0.269700405,29.5892982 C0.450688259,29.5892982 0.641651822,29.5649123 0.641651822,29.3073684 L0.641651822,26.7115789 C0.641651822,26.4533333 0.450688259,26.4287719 0.269700405,26.4287719 L0.198979757,26.4287719 L0.198979757,26.28 C0.395287449,26.28 0.697052632,26.2998246 0.944307692,26.2998246 C1.19530364,26.2998246 1.49706883,26.28 1.73345749,26.28 L1.73345749,26.4287719 L1.66273684,26.4287719 C1.48246154,26.4287719 1.29078543,26.4533333 1.29078543,26.7115789 L1.29078543,29.3073684 C1.29078543,29.5649123 1.48246154,29.5892982 1.66273684,29.5892982 L1.73345749,29.5892982 L1.73345749,29.7387719 C1.49208097,29.7387719 1.18960324,29.7191228 0.938963563,29.7191228 C0.692242915,29.7191228 0.395287449,29.7387719 0.198979757,29.7387719 L0.198979757,29.5892982" id="Fill-14" fill="#1A1919"></path>
                            <path d="M1.7117247,29.7173684 L1.71190283,29.6115789 L1.66309312,29.6115789 C1.48353036,29.6115789 1.26940891,29.5808772 1.26869636,29.307193 L1.26869636,26.7115789 C1.26940891,26.4378947 1.48353036,26.4070175 1.66309312,26.4070175 L1.7117247,26.4070175 L1.7117247,26.3015789 C1.47925506,26.3017544 1.18817814,26.3214035 0.944129555,26.3214035 C0.705425101,26.3214035 0.415951417,26.302807 0.221246964,26.3015789 L0.221246964,26.4070175 L0.268987854,26.4070175 C0.448728745,26.4070175 0.662850202,26.4378947 0.662850202,26.7115789 L0.662850202,29.307193 C0.662850202,29.5808772 0.448728745,29.6115789 0.268987854,29.6115789 L0.221246964,29.6115789 L0.221246964,29.7173684 C0.415951417,29.7152632 0.700080972,29.697193 0.938785425,29.697193 C1.1837247,29.697193 1.47444534,29.7159649 1.7117247,29.7173684 M1.73345749,29.7594737 C1.49012146,29.7594737 1.18906883,29.7396491 0.938785425,29.7396491 C0.692421053,29.7396491 0.396534413,29.7594737 0.198801619,29.7594737 L0.177068826,29.7594737 L0.177068826,29.5680702 L0.268987854,29.5680702 C0.451935223,29.5638596 0.617781377,29.5494737 0.619740891,29.307193 L0.619740891,26.7115789 C0.617781377,26.4692982 0.451935223,26.4533333 0.268987854,26.4501754 L0.177068826,26.4501754 L0.177068826,26.2582456 L0.198801619,26.2582456 C0.396534413,26.2582456 0.698121457,26.2780702 0.944129555,26.2780702 C1.19459109,26.2780702 1.49564372,26.2582456 1.73345749,26.2582456 L1.7557247,26.2582456 L1.7557247,26.4501754 L1.66309312,26.4501754 C1.48050202,26.4533333 1.31376518,26.4692982 1.31251822,26.7115789 L1.31251822,29.307193 C1.31376518,29.5494737 1.48050202,29.5638596 1.66309312,29.5680702 L1.7557247,29.5680702 L1.7557247,29.7594737 L1.73345749,29.7594737" id="Fill-15" fill="#1A1919"></path>
                            <path d="M5.18950607,28.7621053 L5.19965992,28.7521053 L5.19965992,26.8947368 C5.19965992,26.4882456 4.91250202,26.4287719 4.76179757,26.4287719 L4.65099595,26.4287719 L4.65099595,26.28 C4.88774089,26.28 5.1191417,26.2998246 5.35535223,26.2998246 C5.56127935,26.2998246 5.76845344,26.28 5.97402429,26.28 L5.97402429,26.4287719 L5.89902834,26.4287719 C5.68722267,26.4287719 5.45101215,26.4684211 5.45101215,27.0580702 L5.45101215,29.312807 C5.45101215,29.4857895 5.456,29.6591228 5.48076113,29.8126316 L5.28961943,29.8126316 L2.6991417,26.9685965 L2.6991417,29.0101754 C2.6991417,29.4408772 2.78393522,29.5892982 3.17174089,29.5892982 L3.25706883,29.5892982 L3.25706883,29.7385965 C3.04098785,29.7385965 2.82490688,29.7191228 2.6082915,29.7191228 C2.38259109,29.7191228 2.15083401,29.7385965 1.92424291,29.7385965 L1.92424291,29.5892982 L1.99460729,29.5892982 C2.34179757,29.5892982 2.44725506,29.3570175 2.44725506,28.9608772 L2.44725506,26.8740351 C2.44725506,26.597193 2.21549798,26.4287719 1.98997571,26.4287719 L1.92424291,26.4287719 L1.92424291,26.28 C2.11538462,26.28 2.31169231,26.2998246 2.5022996,26.2998246 C2.65353846,26.2998246 2.79961134,26.28 2.95049393,26.28 L5.18950607,28.7621053" id="Fill-16" fill="#1A1919"></path>
                            <path d="M5.17792713,28.7517544 L5.17792713,28.7503509 L5.17382996,28.7468421 L5.17792713,28.7517544 Z M5.18950607,28.7622807 L5.2057166,28.7478947 L5.18950607,28.7622807 Z M5.28961943,29.7907018 L5.45617814,29.7907018 C5.43337652,29.6417544 5.42963563,29.4768421 5.42963563,29.312807 L5.42963563,27.0578947 C5.42963563,26.4635088 5.68241296,26.4070175 5.89920648,26.4070175 L5.9522915,26.4070175 L5.9522915,26.3015789 C5.75402429,26.302807 5.55522267,26.3212281 5.35535223,26.3212281 C5.12519838,26.3212281 4.90092308,26.302807 4.6734413,26.3015789 L4.67308502,26.4070175 L4.76179757,26.4070175 C4.91642105,26.4070175 5.22139271,26.4749123 5.22139271,26.8949123 L5.21480162,28.767193 L5.20464777,28.7775439 L5.18754656,28.7929825 L2.95031579,26.3015789 C2.80103644,26.3015789 2.65531984,26.3212281 2.50194332,26.3212281 C2.31757085,26.3212281 2.12874494,26.302807 1.94615385,26.3015789 L1.9454413,26.4070175 L1.98997571,26.4070175 C2.2260081,26.4070175 2.46880972,26.5847368 2.46880972,26.874386 L2.46880972,28.9608772 C2.46880972,29.357193 2.356583,29.6107018 1.99478543,29.6122807 L1.94615385,29.6107018 L1.94615385,29.7173684 C2.16437247,29.7152632 2.38846964,29.6973684 2.6082915,29.6973684 C2.81831579,29.6973684 3.02780567,29.7152632 3.23533603,29.7173684 L3.23533603,29.6122807 L3.17174089,29.6122807 C2.77591903,29.6107018 2.67776518,29.4410526 2.67723077,29.0103509 L2.67723077,26.912807 L5.28961943,29.7907018 Z M5.48076113,29.8338596 L5.27323077,29.8266667 L2.72051822,27.0245614 L2.72051822,29.0103509 C2.7265749,29.4410526 2.79302024,29.5631579 3.17174089,29.5680702 L3.27951417,29.5680702 L3.27951417,29.7594737 L3.25706883,29.7594737 C3.03956275,29.7594737 2.82294737,29.7396491 2.6082915,29.7396491 C2.38312551,29.7396491 2.15208097,29.7594737 1.92388664,29.7594737 L1.90197571,29.7594737 L1.90197571,29.5680702 L1.99478543,29.5680702 C2.32719028,29.5661404 2.42213765,29.3559649 2.42605668,28.9608772 L2.42605668,26.874386 C2.42498785,26.6108772 2.20552227,26.4501754 1.98997571,26.4501754 L1.90197571,26.4501754 L1.90197571,26.2585965 L1.92388664,26.2585965 C2.1162753,26.2585965 2.31293927,26.2780702 2.50194332,26.2780702 C2.65193522,26.2780702 2.79729555,26.2585965 2.96688259,26.2661404 L5.17792713,28.7173684 L5.17792713,26.8949123 C5.17525506,26.5008772 4.90840486,26.4533333 4.76179757,26.4501754 L4.62872874,26.4501754 L4.62872874,26.2585965 L4.65099595,26.2585965 C4.88845344,26.2585965 5.12021053,26.2780702 5.35535223,26.2780702 C5.56021053,26.2780702 5.76631579,26.2585965 5.97420243,26.2585965 L5.99611336,26.2585965 L5.99611336,26.4501754 L5.89920648,26.4501754 C5.69149798,26.455614 5.47844534,26.4738596 5.4725668,27.0578947 L5.4725668,29.312807 C5.4725668,29.485614 5.47773279,29.6580702 5.50213765,29.8089474 L5.50676923,29.8338596 L5.48076113,29.8338596 Z" id="Fill-17" fill="#1A1919"></path>
                            <path d="M6.7277247,26.5277193 C6.34989474,26.5277193 6.33564372,26.6170175 6.26011336,26.9782456 L6.10905263,26.9782456 C6.12900405,26.8398246 6.15412146,26.7012281 6.16979757,26.5570175 C6.18974899,26.4182456 6.1997247,26.28 6.1997247,26.1366667 L6.32032389,26.1366667 C6.36093927,26.2854386 6.48652632,26.28 6.62297976,26.28 L9.21791093,26.28 C9.35436437,26.28 9.47977328,26.2754386 9.49010526,26.1263158 L9.61017004,26.1463158 C9.59075304,26.28 9.57044534,26.4138596 9.55530364,26.5475439 C9.54568421,26.6814035 9.54568421,26.8154386 9.54568421,26.9487719 L9.39462348,27.0038596 C9.38411336,26.8205263 9.35899595,26.5277193 9.02213765,26.5277193 L8.19736032,26.5277193 L8.19736032,29.1636842 C8.19736032,29.5459649 8.37353846,29.5894737 8.61420243,29.5894737 L8.71021862,29.5894737 L8.71021862,29.7385965 C8.51408907,29.7385965 8.16173279,29.7191228 7.89042915,29.7191228 C7.58866397,29.7191228 7.23595142,29.7385965 7.03946559,29.7385965 L7.03946559,29.5894737 L7.13548178,29.5894737 C7.41302024,29.5894737 7.5528583,29.5649123 7.5528583,29.1740351 L7.5528583,26.5277193 L6.7277247,26.5277193" id="Fill-18" fill="#1A1919"></path>
                            <path d="M8.71075304,29.7594737 C8.51284211,29.7594737 8.16102024,29.7398246 7.89042915,29.7398246 C7.58902024,29.7398246 7.23719838,29.7594737 7.03964372,29.7594737 L7.01862348,29.7594737 L7.01862348,29.5680702 L7.13548178,29.5680702 C7.41302024,29.5614035 7.52435628,29.5582456 7.53059109,29.1740351 L7.53059109,26.5492982 L6.7277247,26.5492982 L6.7277247,26.5057895 L7.57441296,26.5057895 L7.57441296,29.1740351 C7.57441296,29.5715789 7.41177328,29.6115789 7.13548178,29.6122807 L7.06137652,29.6122807 L7.06137652,29.7163158 C7.25982186,29.7152632 7.59846154,29.6973684 7.89042915,29.6973684 C8.15282591,29.6973684 8.48897166,29.7152632 8.68795142,29.7163158 L8.68795142,29.6122807 L8.61420243,29.6122807 C8.37122267,29.6115789 8.17562753,29.5529825 8.17562753,29.1638596 L8.17562753,26.5057895 L9.02231579,26.5057895 C9.36006478,26.5066667 9.40406478,26.7894737 9.41510931,26.9735088 L9.52377328,26.9340351 C9.52377328,26.8052632 9.52448583,26.6752632 9.53357085,26.5447368 C9.54817814,26.4173684 9.56670445,26.2910526 9.58558704,26.164386 L9.50880972,26.1517544 C9.48529555,26.295614 9.34403239,26.3031579 9.21755466,26.3017544 L6.59679352,26.3017544 C6.47868826,26.3017544 6.34936032,26.2963158 6.30446964,26.1578947 L6.22127935,26.1578947 C6.2205668,26.2949123 6.21076923,26.4277193 6.19135223,26.5598246 C6.17674494,26.6959649 6.15376518,26.8268421 6.13523887,26.9577193 L6.24265587,26.9577193 C6.30910121,26.6126316 6.35221053,26.5005263 6.7277247,26.5057895 L6.7277247,26.5492982 C6.35559514,26.5559649 6.36361134,26.6173684 6.28148988,26.9836842 L6.27774899,27.0005263 L6.08393522,27.0005263 L6.08678543,26.9747368 C6.10727126,26.8363158 6.13274494,26.6975439 6.1477085,26.5536842 C6.16837247,26.4163158 6.1779919,26.2789474 6.1779919,26.1366667 L6.1779919,26.1147368 L6.33760324,26.1147368 L6.34134413,26.1305263 C6.37554656,26.255614 6.46871255,26.2563158 6.59679352,26.2582456 L9.21755466,26.2582456 C9.35757085,26.2563158 9.45982186,26.254386 9.46837247,26.1247368 L9.47033198,26.1014035 L9.4931336,26.1057895 L9.63493117,26.1280702 L9.6317247,26.1496491 C9.61177328,26.2824561 9.59182186,26.4163158 9.57703644,26.5492982 C9.56723887,26.6814035 9.56723887,26.8147368 9.56723887,26.9487719 L9.56723887,26.9638596 L9.55298785,26.9696491 L9.3748502,27.0336842 L9.3734251,27.0045614 C9.36006478,26.8189474 9.34011336,26.5492982 9.02231579,26.5492982 L8.21927126,26.5492982 L8.21927126,29.1638596 C8.22408097,29.537193 8.37442915,29.5631579 8.61420243,29.5680702 L8.73212955,29.5680702 L8.73212955,29.7594737 L8.71075304,29.7594737" id="Fill-19" fill="#1A1919"></path>
                            <path d="M9.77102834,29.5892982 L9.84174899,29.5892982 C10.0227368,29.5892982 10.2137004,29.5649123 10.2137004,29.3073684 L10.2137004,26.7115789 C10.2137004,26.4533333 10.0227368,26.4287719 9.84174899,26.4287719 L9.77102834,26.4287719 L9.77102834,26.28 C10.0770688,26.28 10.6015061,26.2998246 11.0229798,26.2998246 C11.446413,26.2998246 11.9687126,26.28 12.3107368,26.28 C12.3021862,26.4926316 12.306996,26.8205263 12.3216032,27.0382456 L12.1701862,27.0778947 C12.1459595,26.7559649 12.085749,26.4985965 11.5570364,26.4985965 L10.8585587,26.4985965 L10.8585587,27.7961404 L11.4563887,27.7961404 C11.7579757,27.7961404 11.8238866,27.6282456 11.8536356,27.3603509 L12.0045182,27.3603509 C11.9945425,27.5538596 11.9893765,27.7468421 11.9893765,27.94 C11.9893765,28.1285965 11.9945425,28.3166667 12.0045182,28.5047368 L11.8536356,28.5342105 C11.8238866,28.2375439 11.8087449,28.0442105 11.4610202,28.0442105 L10.8585587,28.0442105 L10.8585587,29.1982456 C10.8585587,29.5203509 11.1491012,29.5203509 11.4711741,29.5203509 C12.0752389,29.5203509 12.3415547,29.4807018 12.4926154,28.9163158 L12.633166,28.9501754 C12.5677895,29.2136842 12.5074008,29.475614 12.4626883,29.7387719 C12.1402591,29.7387719 11.5620243,29.7191228 11.1097328,29.7191228 C10.6560162,29.7191228 10.0576518,29.7387719 9.77102834,29.7387719 L9.77102834,29.5892982" id="Fill-20" fill="#1A1919"></path>
                            <path d="M12.4438057,29.7163158 C12.4876275,29.4663158 12.5449879,29.2157895 12.6069798,28.9664912 L12.5074008,28.9419298 C12.3568745,29.4963158 12.0652632,29.5457895 11.4713522,29.5419298 C11.1544453,29.5419298 10.8371822,29.5419298 10.8357571,29.1982456 L10.8357571,28.0226316 L11.4610202,28.0226316 C11.8123077,28.0189474 11.8477571,28.2275439 11.8726964,28.5094737 L11.9818947,28.4868421 C11.9722753,28.3049123 11.9674656,28.1219298 11.9674656,27.94 C11.9674656,27.7538596 11.9722753,27.5678947 11.9818947,27.3814035 L11.8726964,27.3814035 C11.8449069,27.6398246 11.7626073,27.8208772 11.4563887,27.8177193 L10.8357571,27.8177193 L10.8357571,26.4763158 L11.5570364,26.4763158 C12.0804049,26.4726316 12.1671579,26.7389474 12.1894251,27.0501754 L12.2980891,27.0217544 C12.2893603,26.8815789 12.2838381,26.7024561 12.2838381,26.5368421 C12.2838381,26.4519298 12.2856194,26.3717544 12.2882915,26.3017544 C11.9464453,26.302807 11.4369717,26.3212281 11.0229798,26.3212281 C10.6097004,26.3212281 10.1011174,26.302807 9.79276113,26.3017544 L9.79276113,26.4070175 L9.84174899,26.4070175 C10.0207773,26.407193 10.2348988,26.4378947 10.2357895,26.7115789 L10.2357895,29.307193 C10.2348988,29.5808772 10.0207773,29.6105263 9.84174899,29.6122807 L9.79276113,29.6122807 L9.79276113,29.7163158 C10.0859757,29.7159649 10.6670607,29.6973684 11.1091984,29.6973684 C11.5531174,29.6973684 12.1195951,29.7159649 12.4438057,29.7163158 M12.462332,29.7594737 C12.1393684,29.7594737 11.5607773,29.7392982 11.1091984,29.7392982 C10.6560162,29.7392982 10.0580081,29.7594737 9.77102834,29.7594737 L9.74947368,29.7594737 L9.74947368,29.5680702 L9.84174899,29.5680702 C10.0239838,29.5650877 10.1891174,29.5494737 10.1914332,29.307193 L10.1914332,26.7115789 C10.1891174,26.4696491 10.0239838,26.4536842 9.84174899,26.4501754 L9.74947368,26.4501754 L9.74947368,26.2585965 L9.77102834,26.2585965 C10.0779595,26.2585965 10.6015061,26.2780702 11.0229798,26.2780702 C11.4460567,26.2780702 11.9683563,26.2585965 12.3107368,26.2585965 L12.3331822,26.2585965 L12.3324696,26.2808772 C12.3287287,26.355614 12.3273036,26.4436842 12.3273036,26.5368421 C12.3273036,26.7082456 12.3324696,26.8952632 12.3426235,27.0364912 L12.3431579,27.0545614 L12.326413,27.0594737 L12.1498785,27.1049123 L12.1484534,27.0792982 C12.1188826,26.7578947 12.0752389,26.5242105 11.5570364,26.5198246 L10.8792227,26.5198246 L10.8788664,27.7738596 L11.4563887,27.7738596 C11.7460405,27.7710526 11.7978785,27.6250877 11.8319028,27.3582456 L11.8336842,27.3384211 L12.0267854,27.3384211 L12.0260729,27.3610526 C12.0166316,27.5538596 12.0103968,27.7468421 12.0103968,27.94 C12.0103968,28.1277193 12.0166316,28.315614 12.0260729,28.5040351 L12.0267854,28.5215789 L12.0087935,28.525614 L11.8336842,28.56 L11.8319028,28.5370175 C11.7975223,28.2342105 11.7950283,28.0685965 11.4610202,28.0647368 L10.8792227,28.0647368 L10.8792227,29.1982456 C10.8795789,29.4989474 11.1435789,29.4973684 11.4713522,29.4989474 C12.0768421,29.4954386 12.32,29.4663158 12.4712389,28.9101754 L12.4767611,28.8901754 L12.4974251,28.8940351 L12.658996,28.9347368 L12.6543644,28.955614 C12.5886316,29.2175439 12.5289555,29.48 12.4838866,29.7421053 L12.4799676,29.7594737 L12.462332,29.7594737" id="Fill-21" fill="#1A1919"></path>
                            <path d="M13.9565506,27.9540351 L14.2020243,27.9540351 C14.7057976,27.9540351 14.9769231,27.7663158 14.9769231,27.1814035 C14.9769231,26.7410526 14.6904777,26.4587719 14.2421053,26.4587719 C14.0908664,26.4587719 14.0265587,26.4738596 13.9565506,26.4784211 L13.9565506,27.9540351 Z M13.3122267,26.8050877 C13.3122267,26.4436842 13.1111093,26.4289474 12.9548826,26.4289474 L12.8642105,26.4289474 L12.8642105,26.28 C13.025247,26.28 13.3369879,26.2998246 13.6440972,26.2998246 C13.9455061,26.2998246 14.1872389,26.28 14.4539109,26.28 C15.0871903,26.28 15.6513522,26.4482456 15.6513522,27.1526316 C15.6513522,27.5977193 15.349587,27.8701754 14.9523401,28.0247368 L15.8122105,29.2917544 C15.9532955,29.5017544 16.0534089,29.5603509 16.3003077,29.5894737 L16.3003077,29.7385965 C16.1341053,29.7385965 15.9730688,29.7191228 15.8074008,29.7191228 C15.6513522,29.7191228 15.4899595,29.7385965 15.3346235,29.7385965 C14.9473522,29.2385965 14.6145911,28.7031579 14.2878866,28.1326316 L13.9565506,28.1326316 L13.9565506,29.1935088 C13.9565506,29.5754386 14.1371822,29.5894737 14.3680486,29.5894737 L14.4588988,29.5894737 L14.4588988,29.7385965 C14.1717409,29.7385965 13.8810202,29.7191228 13.5936842,29.7191228 C13.3519514,29.7191228 13.1155628,29.7385965 12.8642105,29.7385965 L12.8642105,29.5894737 L12.9548826,29.5894737 C13.1413927,29.5894737 13.3122267,29.5059649 13.3122267,29.3222807 L13.3122267,26.8050877 Z" id="Fill-22" fill="#1A1919"></path>
                            <path d="M14.2020243,27.9329825 C14.7002753,27.9287719 14.9510931,27.7584211 14.9559028,27.1824561 C14.9532308,26.75 14.6803239,26.4814035 14.2419271,26.4796491 C14.1060081,26.4796491 14.0420567,26.4915789 13.977749,26.4975439 L13.977749,27.9329825 L14.2020243,27.9329825 Z M13.9560162,27.9754386 L13.9341053,27.9754386 L13.9341053,26.4587719 L13.9533441,26.4566667 C14.0219271,26.4514035 14.0899757,26.4378947 14.2419271,26.4378947 C14.7002753,26.4378947 14.9982996,26.7308772 14.9990121,27.1824561 C14.997587,27.7738596 14.7095385,27.9750877 14.2020243,27.9754386 L13.9560162,27.9754386 Z M13.9560162,28.1117544 L14.2996437,28.1117544 L14.3060567,28.1222807 C14.6336518,28.6915789 14.9640972,29.2264912 15.3346235,29.7173684 C15.4881781,29.7173684 15.6495709,29.697193 15.806332,29.697193 C15.9670121,29.697193 16.1219919,29.714386 16.2783968,29.7164912 L16.2783968,29.6080702 C16.0421862,29.5792982 15.931919,29.5098246 15.7943968,29.3042105 L14.9186721,28.014386 L14.9436113,28.004386 C15.3372955,27.8515789 15.6287287,27.5868421 15.6292632,27.1515789 C15.6287287,26.4642105 15.0861215,26.3047368 14.4539109,26.3015789 C14.188664,26.3015789 13.9471093,26.3214035 13.6440972,26.3214035 C13.3485668,26.3214035 13.0503644,26.302807 12.8854089,26.3015789 L12.8854089,26.4070175 L12.9548826,26.4070175 C13.1111093,26.407193 13.3334251,26.432807 13.3334251,26.8049123 L13.3334251,29.3222807 C13.3334251,29.5214035 13.1442429,29.6115789 12.9548826,29.6122807 L12.8854089,29.6122807 L12.8854089,29.7164912 C13.1276761,29.7161404 13.3571174,29.697193 13.5931498,29.697193 C13.8744291,29.697193 14.1582024,29.7161404 14.4368097,29.7164912 L14.4368097,29.6122807 L14.3680486,29.6122807 C14.1384291,29.6115789 13.9341053,29.5838596 13.9341053,29.192807 L13.9341053,28.1117544 L13.9560162,28.1117544 Z M16.3003077,29.7596491 C16.1316113,29.7596491 15.9716437,29.7396491 15.806332,29.7396491 C15.6529555,29.7396491 15.4922753,29.7596491 15.3168097,29.7514035 C14.9307854,29.252807 14.6001619,28.7207018 14.2750607,28.1549123 L13.977749,28.1549123 L13.977749,29.192807 C13.9830931,29.565614 14.1352227,29.5626316 14.3680486,29.5680702 L14.4808097,29.5680702 L14.4808097,29.7596491 L14.4581862,29.7596491 C14.1706721,29.7596491 13.8785263,29.7396491 13.5931498,29.7396491 C13.3528421,29.7396491 13.1168097,29.7596491 12.8640324,29.7596491 L12.8422996,29.7596491 L12.8422996,29.5680702 L12.9548826,29.5680702 C13.1362267,29.5666667 13.2887126,29.4892982 13.2896032,29.3222807 L13.2896032,26.8049123 C13.2858623,26.4536842 13.1111093,26.4552632 12.9548826,26.4501754 L12.8422996,26.4501754 L12.8422996,26.2582456 L12.8640324,26.2582456 C13.0270283,26.2582456 13.3375223,26.2778947 13.6440972,26.2778947 C13.9446154,26.2778947 14.1858138,26.2582456 14.4539109,26.2582456 C15.088081,26.2596491 15.6716599,26.4321053 15.6734413,27.1515789 C15.6734413,27.5987719 15.3734575,27.8780702 14.9851174,28.0340351 L15.8302024,29.2801754 C15.970753,29.4857895 16.0583968,29.537193 16.303336,29.5680702 L16.3215061,29.5707018 L16.3215061,29.7596491 L16.3003077,29.7596491 Z" id="Fill-23" fill="#1A1919"></path>
                            <path d="M19.7157409,28.7621053 L19.7248259,28.7521053 L19.7248259,26.8947368 C19.7248259,26.4882456 19.4385587,26.4287719 19.2876761,26.4287719 L19.1774089,26.4287719 L19.1774089,26.28 C19.4136194,26.28 19.6444858,26.2998246 19.881587,26.2998246 C20.0880486,26.2998246 20.2932632,26.28 20.5009717,26.28 L20.5009717,26.4287719 L20.4252632,26.4287719 C20.2139919,26.4287719 19.9774251,26.4684211 19.9774251,27.0580702 L19.9774251,29.312807 C19.9774251,29.4857895 19.9822348,29.6591228 20.0071741,29.8126316 L19.8162105,29.8126316 L17.2257328,26.9685965 L17.2257328,29.0101754 C17.2257328,29.4408772 17.3108826,29.5892982 17.6985101,29.5892982 L17.7838381,29.5892982 L17.7838381,29.7385965 C17.5677571,29.7385965 17.3513198,29.7191228 17.135417,29.7191228 C16.9082915,29.7191228 16.6768907,29.7385965 16.450834,29.7385965 L16.450834,29.5892982 L16.5204858,29.5892982 C16.8680324,29.5892982 16.9740243,29.3570175 16.9740243,28.9608772 L16.9740243,26.8740351 C16.9740243,26.597193 16.7424453,26.4287719 16.5163887,26.4287719 L16.450834,26.4287719 L16.450834,26.28 C16.6412632,26.28 16.8382834,26.2998246 17.029247,26.2998246 C17.1792389,26.2998246 17.325668,26.28 17.4767287,26.28 L19.7157409,28.7621053" id="Fill-24" fill="#1A1919"></path>
                            <path d="M19.7030931,28.7521053 L19.7030931,28.7507018 L19.6995304,28.747193 L19.7030931,28.7521053 Z M19.7153846,28.7622807 L19.731417,28.7478947 L19.7153846,28.7622807 Z M19.8162105,29.7907018 L19.9815223,29.7907018 C19.9596113,29.6419298 19.9551579,29.4768421 19.9551579,29.312807 L19.9551579,27.0578947 C19.9551579,26.4635088 20.2098947,26.4084211 20.4254413,26.4070175 L20.4779919,26.4070175 L20.4779919,26.3015789 C20.2804372,26.302807 20.0812794,26.3212281 19.8814089,26.3212281 C19.6507206,26.3212281 19.4262672,26.302807 19.1984291,26.3015789 L19.1984291,26.4070175 L19.2876761,26.4070175 C19.442834,26.4084211 19.7474494,26.4749123 19.7474494,26.8945614 L19.7403239,28.767193 L19.7307045,28.7777193 L19.7152065,28.7936842 L17.4765506,26.3015789 C17.3272713,26.3015789 17.1815547,26.3212281 17.0294251,26.3212281 C16.8425587,26.3212281 16.6551579,26.302807 16.471498,26.3015789 L16.471498,26.4070175 L16.5162105,26.4070175 C16.7525992,26.4084211 16.9946883,26.5838596 16.9946883,26.8740351 L16.9946883,28.96 C16.9946883,29.3575439 16.8815709,29.6107018 16.5204858,29.6122807 L16.471498,29.6115789 L16.471498,29.7163158 C16.6893603,29.7152632 16.9132794,29.6973684 17.1343482,29.6973684 C17.3452632,29.6973684 17.5542186,29.7152632 17.7621053,29.7163158 L17.7621053,29.6122807 L17.6986883,29.6122807 C17.3021538,29.6115789 17.2034656,29.4410526 17.2023968,29.01 L17.2023968,26.9138596 L19.8162105,29.7907018 Z M20.0071741,29.8338596 L19.8,29.8270175 L17.246753,27.0245614 L17.246753,29.01 C17.253166,29.4410526 17.3192551,29.5631579 17.6986883,29.5680702 L17.8050364,29.5680702 L17.8050364,29.7594737 L17.7834818,29.7594737 C17.5656194,29.7594737 17.3498947,29.7392982 17.1343482,29.7392982 C16.9095385,29.7392982 16.677247,29.7594737 16.4510121,29.7594737 L16.4280324,29.7594737 L16.4280324,29.5680702 L16.5204858,29.5680702 C16.8525344,29.5668421 16.9481943,29.3559649 16.9514008,28.96 L16.9514008,26.8740351 C16.9506883,26.6101754 16.7312227,26.4501754 16.5162105,26.4501754 L16.4280324,26.4501754 L16.4280324,26.2582456 L16.4510121,26.2582456 C16.6425101,26.2582456 16.8393522,26.2780702 17.0294251,26.2780702 C17.1771012,26.2780702 17.322996,26.2582456 17.4916923,26.2649123 L19.7030931,28.7173684 L19.7030931,26.8945614 C19.7020243,26.5008772 19.4341053,26.4522807 19.2876761,26.4501754 L19.1547854,26.4501754 L19.1547854,26.2582456 L19.1768745,26.2582456 C19.4145101,26.2582456 19.6464453,26.2780702 19.8814089,26.2780702 C20.0862672,26.2780702 20.2929069,26.2582456 20.5002591,26.2582456 L20.5223482,26.2582456 L20.5223482,26.4501754 L20.4254413,26.4501754 C20.2177328,26.4552632 20.0037895,26.4738596 19.9988016,27.0578947 L19.9988016,29.312807 C19.9988016,29.485614 20.0032551,29.6570175 20.0287287,29.8096491 L20.0312227,29.8338596 L20.0071741,29.8338596 Z" id="Fill-25" fill="#1A1919"></path>
                            <path d="M22.0441781,26.8349123 L22.033668,26.8349123 L21.5660567,28.2375439 L22.5062672,28.2375439 L22.0441781,26.8349123 Z M21.3098947,29.03 C21.2589474,29.1982456 21.1982024,29.3277193 21.1982024,29.4161404 C21.1982024,29.5649123 21.4100081,29.5894737 21.5758543,29.5894737 L21.6316113,29.5894737 L21.6316113,29.7385965 C21.4299595,29.7282456 21.2243887,29.7191228 21.0222024,29.7191228 C20.8412146,29.7191228 20.6609393,29.7282456 20.4792389,29.7385965 L20.4792389,29.5894737 L20.5098785,29.5894737 C20.7056518,29.5894737 20.8720324,29.4754386 20.9463158,29.2673684 L21.7520324,26.9940351 C21.8174089,26.8103509 21.9084372,26.5626316 21.9388988,26.3789474 C22.0992227,26.3247368 22.3006964,26.2257895 22.3961781,26.1661404 C22.4116761,26.1610526 22.420583,26.1557895 22.4364372,26.1557895 C22.4514008,26.1557895 22.460664,26.1557895 22.4717085,26.1712281 C22.4866721,26.2107018 22.5011012,26.255614 22.5174899,26.2949123 L23.442915,28.8861404 C23.5031255,29.0594737 23.5629798,29.242807 23.6283563,29.3921053 C23.6887449,29.5308772 23.794915,29.5894737 23.9611174,29.5894737 L23.9910445,29.5894737 L23.9910445,29.7385965 C23.7646316,29.7282456 23.5376842,29.7191228 23.2971984,29.7191228 C23.0502996,29.7191228 22.7982348,29.7282456 22.5418947,29.7385965 L22.5418947,29.5894737 L22.5974737,29.5894737 C22.7125506,29.5894737 22.9095709,29.57 22.9095709,29.4459649 C22.9095709,29.3815789 22.864502,29.2478947 22.8080324,29.0889474 L22.6122591,28.5149123 L21.4702186,28.5149123 L21.3098947,29.03 Z" id="Fill-26" fill="#1A1919"></path>
                            <path d="M22.0222672,26.8415789 L22.033668,26.8377193 L22.0222672,26.8415789 Z M21.5954494,28.215614 L22.4761619,28.215614 L22.0382996,26.8880702 L21.5954494,28.215614 Z M21.5355951,28.2585965 L22.0172794,26.8131579 L22.0441781,26.8131579 L22.0441781,26.8349123 L22.0386559,26.8363158 L22.0441781,26.8349123 L22.0441781,26.8131579 L22.0593198,26.8131579 L22.5372632,28.2585965 L21.5355951,28.2585965 Z M22.5638057,29.7152632 C22.8128421,29.7070175 23.0568907,29.697193 23.2970202,29.697193 C23.5307368,29.697193 23.749668,29.7070175 23.9684211,29.7152632 L23.9684211,29.6117544 L23.9609393,29.6117544 C23.7888583,29.612807 23.6700405,29.5463158 23.6080486,29.4001754 C23.5428502,29.25 23.4812146,29.0663158 23.4220729,28.8926316 L22.4962915,26.3017544 C22.4806154,26.2624561 22.4660081,26.2175439 22.4528259,26.1824561 C22.4487287,26.1773684 22.4497976,26.1773684 22.4453441,26.1773684 L22.4362591,26.1773684 C22.4261053,26.1773684 22.4198704,26.1805263 22.4070445,26.1840351 C22.3101377,26.245614 22.1081296,26.3433333 21.9592065,26.3822807 C21.9285668,26.5696491 21.8375385,26.8173684 21.7721619,27.0008772 L20.9675142,29.2749123 C20.8903806,29.4898246 20.7140243,29.6122807 20.509166,29.6117544 L20.5013279,29.6117544 L20.5013279,29.7152632 C20.6737652,29.7070175 20.8481619,29.697193 21.022915,29.697193 C21.217085,29.697193 21.4160648,29.7070175 21.607919,29.7152632 L21.607919,29.6117544 L21.5758543,29.6117544 C21.4116113,29.61 21.1830607,29.5915789 21.1766478,29.4168421 C21.177004,29.3180702 21.2386397,29.1910526 21.2879838,29.0238596 L21.3098947,29.03 L21.2879838,29.0231579 L21.4540081,28.4936842 L22.6270445,28.4936842 L22.8288745,29.0821053 C22.8846316,29.2414035 22.9311255,29.3729825 22.9311255,29.4459649 C22.9238219,29.5980702 22.7113036,29.6087719 22.5972955,29.6117544 L22.5638057,29.6117544 L22.5638057,29.7152632 Z M23.9894413,29.7594737 C23.7633846,29.7501754 23.5367935,29.7392982 23.2970202,29.7392982 C23.0502996,29.7392982 22.7998381,29.7501754 22.5426073,29.7594737 L22.5196275,29.7605263 L22.5196275,29.567193 L22.5972955,29.567193 C22.7137976,29.567193 22.8867692,29.5412281 22.8869474,29.4459649 C22.8880162,29.3898246 22.8427692,29.2538596 22.7873684,29.0957895 L22.5962267,28.5357895 L21.486251,28.5357895 L21.3298462,29.0361404 C21.2790769,29.2050877 21.2185101,29.3359649 21.2190445,29.4168421 C21.2206478,29.5380702 21.4089393,29.567193 21.5758543,29.567193 L21.6528097,29.567193 L21.6528097,29.7605263 L21.6300081,29.7594737 C21.4287126,29.7501754 21.2236761,29.7392982 21.022915,29.7392982 C20.8426397,29.7392982 20.6609393,29.7501754 20.4808421,29.7594737 L20.4575061,29.7605263 L20.4575061,29.567193 L20.509166,29.567193 C20.6969231,29.5668421 20.8529717,29.4617544 20.9254737,29.2608772 L21.7310121,26.9864912 C21.7967449,26.802807 21.8877733,26.5559649 21.9310607,26.3584211 C22.0888907,26.305614 22.2908988,26.2059649 22.3878057,26.1459649 C22.4017004,26.1410526 22.4155951,26.1342105 22.4362591,26.1342105 C22.4487287,26.1336842 22.4756275,26.1370175 22.4918381,26.1633333 C22.5060891,26.2038596 22.5219433,26.2480702 22.5374413,26.2880702 L23.4637571,28.8794737 C23.5228988,29.0529825 23.582753,29.2359649 23.6484858,29.3826316 C23.7070931,29.5150877 23.7995466,29.5668421 23.9609393,29.567193 L24.0122429,29.567193 L24.0122429,29.7605263 L23.9894413,29.7594737 Z" id="Fill-27" fill="#1A1919"></path>
                            <path d="M24.2122915,26.5277193 C23.8348178,26.5277193 23.8198543,26.6170175 23.7443239,26.9782456 L23.5929069,26.9782456 C23.6128583,26.8398246 23.638332,26.7012281 23.6540081,26.5570175 C23.6739595,26.4182456 23.6834008,26.28 23.6834008,26.1366667 L23.8045344,26.1366667 C23.8446154,26.2854386 23.970915,26.28 24.1062996,26.28 L26.7024777,26.28 C26.8376842,26.28 26.9632713,26.2754386 26.9736032,26.1263158 L27.0942024,26.1463158 C27.0747854,26.28 27.054834,26.4138596 27.0396923,26.5475439 C27.0284696,26.6814035 27.0284696,26.8154386 27.0284696,26.9487719 L26.8777652,27.0038596 C26.8686802,26.8205263 26.8435628,26.5277193 26.50617,26.5277193 L25.6810364,26.5277193 L25.6810364,29.1636842 C25.6810364,29.5459649 25.8573927,29.5894737 26.098413,29.5894737 L26.194251,29.5894737 L26.194251,29.7385965 C25.9979433,29.7385965 25.6462996,29.7191228 25.3741053,29.7191228 C25.0728745,29.7191228 24.7199838,29.7385965 24.5238543,29.7385965 L24.5238543,29.5894737 L24.619336,29.5894737 C24.8965182,29.5894737 25.037247,29.5649123 25.037247,29.1740351 L25.037247,26.5277193 L24.2122915,26.5277193" id="Fill-28" fill="#1A1919"></path>
                            <path d="M26.194251,29.7594737 C25.9966964,29.7594737 25.6443401,29.7398246 25.3741053,29.7398246 C25.0734089,29.7398246 24.7210526,29.7594737 24.5238543,29.7594737 L24.501587,29.7594737 L24.501587,29.5680702 L24.619336,29.5680702 C24.8965182,29.5614035 25.0078543,29.5582456 25.0148016,29.1740351 L25.0142672,26.5492982 L24.2122915,26.5492982 L24.2122915,26.5057895 L25.0586235,26.5057895 L25.0586235,29.1740351 C25.0586235,29.5715789 24.8952713,29.6105263 24.619336,29.6115789 L24.5452308,29.6115789 L24.5452308,29.7175439 C24.7442105,29.7152632 25.0821377,29.6973684 25.3741053,29.6973684 C25.6370364,29.6973684 25.9731822,29.7152632 26.1721619,29.7175439 L26.1719838,29.6115789 L26.0978785,29.6115789 C25.8561457,29.6105263 25.6598381,29.5533333 25.6591255,29.1638596 L25.6591255,26.5057895 L26.50617,26.5057895 C26.8437409,26.5066667 26.8880972,26.7894737 26.8977166,26.9735088 L27.0072713,26.9340351 C27.0072713,26.8052632 27.0078057,26.6752632 27.0177814,26.5452632 C27.0316761,26.4180702 27.0503806,26.2910526 27.0689069,26.1647368 L26.9928421,26.1517544 C26.9698623,26.295614 26.8277085,26.3036842 26.7024777,26.3017544 L24.0806478,26.3017544 C23.9621862,26.302807 23.8335709,26.2963158 23.7879676,26.157193 L23.705668,26.157193 C23.7044211,26.2945614 23.6948016,26.4277193 23.6750283,26.5598246 C23.6614899,26.6961404 23.637085,26.8275439 23.6180243,26.9577193 L23.7259757,26.9577193 C23.7922429,26.6126316 23.8360648,26.5001754 24.2122915,26.5057895 L24.2122915,26.5492982 C23.8390931,26.5554386 23.8476437,26.6173684 23.7653441,26.9836842 L23.7616032,27.0005263 L23.5674332,27.0005263 L23.5704615,26.9757895 C23.5916599,26.8363158 23.6162429,26.6975439 23.6313846,26.5545614 C23.6518704,26.4163158 23.6614899,26.2789474 23.6614899,26.1366667 L23.6614899,26.1147368 L23.8205668,26.1147368 L23.8250202,26.1305263 C23.8601134,26.255614 23.9520324,26.2563158 24.0806478,26.2582456 C24.0897328,26.2582456 24.0973927,26.2585965 24.1062996,26.2585965 L26.7024777,26.2585965 C26.841247,26.2563158 26.9431417,26.254386 26.9516923,26.1250877 L26.9531174,26.1014035 L26.9768097,26.1057895 L27.1193198,26.1280702 L27.1155789,26.1496491 C27.0950931,26.2824561 27.0758543,26.4163158 27.0607126,26.5492982 C27.0503806,26.6814035 27.0503806,26.8154386 27.0503806,26.9487719 L27.0503806,26.9638596 L27.0359514,26.9696491 L26.8576356,27.0336842 L26.8569231,27.0045614 C26.8437409,26.8189474 26.8239676,26.5492982 26.50617,26.5492982 L25.7027692,26.5492982 L25.7027692,29.1638596 C25.7081134,29.537193 25.8584615,29.5631579 26.0978785,29.5680702 L26.2154494,29.5680702 L26.2154494,29.7594737 L26.194251,29.7594737" id="Fill-29" fill="#1A1919"></path>
                            <path d="M27.2798219,29.5892982 L27.3501862,29.5892982 C27.5318866,29.5892982 27.7221377,29.5649123 27.7221377,29.3073684 L27.7221377,26.7115789 C27.7221377,26.4533333 27.5318866,26.4287719 27.3501862,26.4287719 L27.2798219,26.4287719 L27.2798219,26.28 C27.4764858,26.28 27.7777166,26.2998246 28.0237247,26.2998246 C28.2759676,26.2998246 28.5780891,26.28 28.8146559,26.28 L28.8146559,26.4287719 L28.7442915,26.4287719 C28.5627692,26.4287719 28.3712713,26.4533333 28.3712713,26.7115789 L28.3712713,29.3073684 C28.3712713,29.5649123 28.5627692,29.5892982 28.7442915,29.5892982 L28.8146559,29.5892982 L28.8146559,29.7387719 C28.5729231,29.7387719 28.2709798,29.7191228 28.0196275,29.7191228 C27.7729069,29.7191228 27.4764858,29.7387719 27.2798219,29.7387719 L27.2798219,29.5892982" id="Fill-30" fill="#1A1919"></path>
                            <path d="M28.7918543,29.7163158 L28.7918543,29.6115789 L28.7441134,29.6115789 C28.5640162,29.6115789 28.3498947,29.5808772 28.3498947,29.307193 L28.3498947,26.7115789 C28.3498947,26.4378947 28.5640162,26.407193 28.7441134,26.4070175 L28.7918543,26.4070175 L28.7918543,26.3017544 C28.5595628,26.302807 28.268664,26.3212281 28.0237247,26.3212281 C27.7851984,26.3212281 27.4967935,26.302807 27.3019109,26.3017544 L27.3019109,26.4070175 L27.3501862,26.4070175 C27.5292146,26.407193 27.7436923,26.4378947 27.7444049,26.7115789 L27.7444049,29.307193 C27.7436923,29.5808772 27.5292146,29.6115789 27.3501862,29.6115789 L27.3019109,29.6115789 L27.3019109,29.7163158 C27.496081,29.714386 27.7802105,29.6973684 28.0196275,29.6973684 C28.263498,29.6973684 28.5543968,29.7152632 28.7918543,29.7163158 M28.8144777,29.7594737 C28.571498,29.7594737 28.2702672,29.7392982 28.0196275,29.7392982 C27.7736194,29.7392982 27.476664,29.7594737 27.2798219,29.7594737 L27.2580891,29.7594737 L27.2580891,29.5680702 L27.3501862,29.5680702 C27.5317085,29.5650877 27.6986235,29.5494737 27.6996923,29.307193 L27.6996923,26.7115789 C27.6986235,26.4696491 27.5317085,26.4533333 27.3501862,26.4501754 L27.2580891,26.4501754 L27.2580891,26.2585965 L27.2798219,26.2585965 C27.476664,26.2585965 27.7786073,26.2780702 28.0237247,26.2780702 C28.2747206,26.2780702 28.5763077,26.2585965 28.8144777,26.2585965 L28.8356761,26.2585965 L28.8356761,26.4501754 L28.7441134,26.4501754 C28.5602753,26.4533333 28.3949636,26.4696491 28.393004,26.7115789 L28.393004,29.307193 C28.3949636,29.5494737 28.5602753,29.5650877 28.7441134,29.5680702 L28.8356761,29.5680702 L28.8356761,29.7594737 L28.8144777,29.7594737" id="Fill-31" fill="#1A1919"></path>
                            <path d="M30.8967287,29.5947368 C31.8731012,29.5947368 32.0430445,28.7470175 32.0430445,28.0247368 C32.0430445,27.3003509 31.6465101,26.4238596 30.8110445,26.4238596 C29.9306883,26.4238596 29.6691822,27.1968421 29.6691822,27.8601754 C29.6691822,28.7470175 30.0815709,29.5947368 30.8967287,29.5947368 M30.820664,26.2059649 C31.8932308,26.2059649 32.7479352,26.8607018 32.7479352,27.9157895 C32.7479352,29.0550877 31.9179919,29.8126316 30.8466721,29.8126316 C29.7796275,29.8126316 28.965004,29.0992982 28.965004,28.0340351 C28.965004,27.0038596 29.7746397,26.2059649 30.820664,26.2059649" id="Fill-32" fill="#1A1919"></path>
                            <path d="M29.6470931,27.8601754 C29.6485182,27.1935088 29.9128745,26.4019298 30.8110445,26.4019298 C31.6652146,26.4035088 32.0635304,27.2963158 32.0653117,28.0247368 C32.0635304,28.7470175 31.8910931,29.6152632 30.8967287,29.6152632 L30.8967287,29.5731579 C31.8535061,29.5721053 32.0191741,28.7470175 32.0214899,28.0247368 C32.0214899,27.3064912 31.6286964,26.4468421 30.8110445,26.4454386 C29.9479676,26.4464912 29.6926964,27.2003509 29.6907368,27.8601754 C29.6914494,28.7426316 30.1000972,29.5714035 30.8967287,29.5731579 L30.8967287,29.6152632 C30.0616194,29.6145614 29.6485182,28.7519298 29.6470931,27.8601754 M28.9425587,28.0340351 C28.9448745,26.9917544 29.763417,26.1859649 30.820664,26.1842105 L30.820664,26.227193 C29.7862186,26.227193 28.9863806,27.0149123 28.9853117,28.0340351 C28.9870931,29.0873684 29.7899595,29.79 30.8464939,29.7907018 C31.9073036,29.79 32.7253117,29.0435088 32.726915,27.9147368 C32.7260243,26.872807 31.8843239,26.2284211 30.820664,26.227193 L30.820664,26.1842105 C31.9007126,26.1852632 32.7673522,26.8466667 32.7693117,27.9147368 C32.7682429,29.0663158 31.9279676,29.8319298 30.8464939,29.8338596 C29.7703644,29.8319298 28.9448745,29.1112281 28.9425587,28.0340351" id="Fill-33" fill="#1A1919"></path>
                            <path d="M36.1378947,28.7621053 L36.1482267,28.7521053 L36.1482267,26.8947368 C36.1482267,26.4882456 35.8607126,26.4287719 35.7096518,26.4287719 L35.6006316,26.4287719 L35.6006316,26.28 C35.8363077,26.28 36.0678866,26.2998246 36.3035628,26.2998246 C36.5107368,26.2998246 36.7168421,26.28 36.9233036,26.28 L36.9233036,26.4287719 L36.8472389,26.4287719 C36.636502,26.4287719 36.3994008,26.4684211 36.3994008,27.0580702 L36.3994008,29.312807 C36.3994008,29.4857895 36.4043887,29.6591228 36.4300405,29.8126316 L36.2388988,29.8126316 L33.6477085,26.9685965 L33.6477085,29.0101754 C33.6477085,29.4408772 33.7330364,29.5892982 34.1204858,29.5892982 L34.20617,29.5892982 L34.20617,29.7385965 C33.9897328,29.7385965 33.77383,29.7191228 33.5575709,29.7191228 C33.3309798,29.7191228 33.0990445,29.7385965 32.8724534,29.7385965 L32.8724534,29.5892982 L32.9435304,29.5892982 C33.2912551,29.5892982 33.3958219,29.3570175 33.3958219,28.9608772 L33.3958219,26.8740351 C33.3958219,26.597193 33.1653117,26.4287719 32.9383644,26.4287719 L32.8724534,26.4287719 L32.8724534,26.28 C33.0641296,26.28 33.2602591,26.2998246 33.4512227,26.2998246 C33.6019271,26.2998246 33.7476437,26.28 33.8990607,26.28 L36.1378947,28.7621053" id="Fill-34" fill="#1A1919"></path>
                            <path d="M36.1261377,28.7521053 L36.1261377,28.7507018 L36.1222186,28.747193 L36.1261377,28.7521053 Z M36.1378947,28.7622807 L36.1541053,28.7478947 L36.1378947,28.7622807 Z M36.2390769,29.7907018 L36.4038543,29.7907018 C36.3822996,29.6417544 36.3780243,29.4768421 36.3780243,29.312807 L36.3780243,27.0578947 C36.3780243,26.4622807 36.6318704,26.4084211 36.8472389,26.4070175 L36.901749,26.4070175 L36.901749,26.3015789 C36.7027692,26.302807 36.5043239,26.3212281 36.3032065,26.3212281 C36.0739433,26.3212281 35.8493117,26.302807 35.6216518,26.3015789 L35.6216518,26.4070175 L35.70983,26.4070175 C35.8653441,26.4084211 36.1690688,26.4761404 36.1690688,26.8949123 L36.1637247,28.767193 L36.1541053,28.7777193 L36.1378947,28.7936842 L33.8990607,26.3015789 C33.7504939,26.3015789 33.6037085,26.3212281 33.4514008,26.3212281 C33.2659595,26.3212281 33.0771336,26.302807 32.8940081,26.3015789 L32.8940081,26.4070175 L32.9383644,26.4070175 C33.1745749,26.4084211 33.4175547,26.5838596 33.4175547,26.8740351 L33.4175547,28.9608772 C33.4175547,29.357193 33.3053279,29.6107018 32.9437085,29.6122807 L32.8940081,29.6115789 L32.8940081,29.7163158 C33.112583,29.7152632 33.3363239,29.6973684 33.5575709,29.6973684 C33.767417,29.6973684 33.9756599,29.7152632 34.1846154,29.7163158 L34.1846154,29.6122807 L34.1195951,29.6122807 C33.724664,29.6115789 33.6257976,29.4410526 33.6257976,29.0103509 L33.6257976,26.912807 L36.2390769,29.7907018 Z M36.4302186,29.8338596 L36.2219757,29.8266667 L33.6692632,27.0245614 L33.6692632,29.0103509 C33.6751417,29.4410526 33.7419433,29.5624561 34.1195951,29.567193 L34.228081,29.567193 L34.228081,29.7594737 L34.2063482,29.7594737 C33.988664,29.7594737 33.772583,29.7396491 33.5575709,29.7396491 C33.3318704,29.7396491 33.1008259,29.7594737 32.8724534,29.7594737 L32.8516113,29.7594737 L32.8516113,29.567193 L32.9437085,29.567193 C33.2752227,29.5661404 33.3707045,29.3559649 33.3744453,28.9608772 L33.3744453,26.8740351 C33.3739109,26.6101754 33.1546235,26.4501754 32.9383644,26.4501754 L32.8516113,26.4501754 L32.8516113,26.2585965 L32.8724534,26.2585965 C33.0650202,26.2585965 33.2615061,26.2780702 33.4514008,26.2780702 C33.6003239,26.2780702 33.7453279,26.2585965 33.9158057,26.2661404 L36.1261377,28.7173684 L36.1261377,26.8949123 C36.1248907,26.5008772 35.8569717,26.4533333 35.70983,26.4501754 L35.5774737,26.4501754 L35.5774737,26.2585965 L35.6002753,26.2585965 C35.8368421,26.2585965 36.0689555,26.2780702 36.3032065,26.2780702 C36.5093117,26.2780702 36.7145263,26.2585965 36.9233036,26.2585965 L36.9448583,26.2585965 L36.9448583,26.4501754 L36.8472389,26.4501754 C36.6402429,26.455614 36.4264777,26.4742105 36.4218462,27.0578947 L36.4218462,29.312807 C36.4218462,29.485614 36.4257652,29.6580702 36.4503482,29.8096491 L36.4546235,29.8338596 L36.4302186,29.8338596 Z" id="Fill-35" fill="#1A1919"></path>
                            <path d="M38.4668664,26.8349123 L38.4567126,26.8349123 L37.9880324,28.2375439 L38.9298462,28.2375439 L38.4668664,26.8349123 Z M37.7315142,29.03 C37.68217,29.1982456 37.6210688,29.3277193 37.6210688,29.4161404 C37.6210688,29.5649123 37.8332308,29.5894737 37.9981862,29.5894737 L38.0542996,29.5894737 L38.0542996,29.7385965 C37.8528259,29.7282456 37.6463644,29.7191228 37.4450688,29.7191228 C37.2637247,29.7191228 37.0830931,29.7282456 36.9026397,29.7385965 L36.9026397,29.5894737 L36.9311417,29.5894737 C37.1281619,29.5894737 37.2948988,29.4754386 37.369004,29.2673684 L38.1750769,26.9940351 C38.2404534,26.8103509 38.3313036,26.5626316 38.3606964,26.3789474 C38.5217328,26.3247368 38.7228502,26.2257895 38.8192227,26.1661404 C38.8336518,26.1610526 38.8438057,26.1557895 38.8589474,26.1557895 C38.8739109,26.1557895 38.8837085,26.1557895 38.8936842,26.1712281 C38.909004,26.2107018 38.924502,26.255614 38.9396437,26.2949123 L39.8647126,28.8861404 C39.9249231,29.0594737 39.9851336,29.242807 40.0514008,29.3921053 C40.1116113,29.5308772 40.2177814,29.5894737 40.3832713,29.5894737 L40.4139109,29.5894737 L40.4139109,29.7385965 C40.1873198,29.7282456 39.9607287,29.7191228 39.718996,29.7191228 C39.4729879,29.7191228 39.2209231,29.7282456 38.9644049,29.7385965 L38.9644049,29.5894737 L39.0198057,29.5894737 C39.1348826,29.5894737 39.3322591,29.57 39.3322591,29.4459649 C39.3322591,29.3815789 39.286834,29.2478947 39.2305425,29.0889474 L39.0353036,28.5149123 L37.893085,28.5149123 L37.7315142,29.03 Z" id="Fill-36" fill="#1A1919"></path>
                            <path d="M38.4460243,26.8415789 L38.4561781,26.8377193 L38.4460243,26.8415789 Z M38.0188502,28.215614 L38.8988502,28.215614 L38.4609879,26.8887719 L38.0188502,28.215614 Z M37.9582834,28.2580702 L38.4406802,26.8131579 L38.4668664,26.8131579 L38.4668664,26.8349123 L38.4613441,26.8363158 L38.4668664,26.8349123 L38.4668664,26.8131579 L38.4825425,26.8131579 L38.9583482,28.2580702 L37.9582834,28.2580702 Z M38.9859595,29.7159649 C39.2348178,29.7070175 39.4797571,29.697193 39.718996,29.697193 C39.953247,29.697193 40.1723563,29.7070175 40.3914656,29.7152632 L40.390753,29.6117544 L40.3827368,29.6117544 C40.2122591,29.6122807 40.0934413,29.5463158 40.030915,29.4001754 C39.9644696,29.25 39.9046154,29.0663158 39.844583,28.8935088 L38.9186235,26.3017544 C38.9036599,26.2624561 38.8881619,26.2175439 38.8760486,26.1835088 C38.8719514,26.1773684 38.8723077,26.1773684 38.8687449,26.1773684 L38.8589474,26.1773684 C38.8484372,26.1773684 38.842915,26.1808772 38.8304453,26.1842105 C38.7324696,26.2449123 38.5313522,26.344386 38.382251,26.3822807 C38.3512551,26.5696491 38.2598704,26.8168421 38.1948502,27.0008772 L37.3891336,29.2749123 C37.3128907,29.4898246 37.137247,29.6122807 36.9313198,29.6117544 L36.9238381,29.6117544 L36.9238381,29.7152632 C37.097166,29.7070175 37.2701377,29.697193 37.4450688,29.697193 C37.6401296,29.697193 37.8385749,29.7070175 38.0322105,29.7152632 L38.0322105,29.6117544 L37.9981862,29.6117544 C37.8344777,29.61 37.6052146,29.5922807 37.5989798,29.4161404 C37.5998704,29.3180702 37.6623968,29.1917544 37.7110283,29.0238596 L37.7315142,29.03 L37.7110283,29.0231579 L37.8768745,28.4936842 L39.0499109,28.4936842 L39.2513846,29.0821053 C39.3071417,29.2417544 39.3527449,29.3729825 39.3527449,29.4459649 C39.345085,29.5980702 39.13417,29.6087719 39.0194494,29.6117544 L38.9859595,29.6117544 L38.9859595,29.7159649 Z M40.4117733,29.7594737 C40.1851822,29.7508772 39.9593036,29.7396491 39.718996,29.7396491 C39.4738785,29.7396491 39.2218138,29.7508772 38.9652955,29.7594737 L38.9430283,29.7605263 L38.9430283,29.5682456 L39.0194494,29.5682456 C39.136664,29.5682456 39.3096356,29.5412281 39.31017,29.4459649 C39.3112389,29.3898246 39.2659919,29.254386 39.2097004,29.0957895 L39.0183806,28.5357895 L37.9080486,28.5357895 L37.7527126,29.0361404 C37.7021215,29.2057895 37.6420891,29.3359649 37.6431579,29.4161404 C37.6431579,29.5380702 37.8316275,29.5682456 37.9981862,29.5682456 L38.0749636,29.5682456 L38.0749636,29.7605263 L38.0525182,29.7594737 C37.8515789,29.7508772 37.6454737,29.7396491 37.4450688,29.7396491 C37.2647935,29.7396491 37.0839838,29.7508772 36.9026397,29.7594737 L36.8807287,29.7605263 L36.8807287,29.5682456 L36.9313198,29.5682456 C37.1190769,29.567193 37.2760162,29.4610526 37.3492308,29.2608772 L38.1540567,26.9864912 C38.2187206,26.802807 38.3092146,26.5559649 38.353749,26.3589474 C38.5117571,26.3049123 38.7137652,26.2059649 38.8115628,26.1459649 C38.8245668,26.1410526 38.8384615,26.1349123 38.8589474,26.1349123 C38.8723077,26.1336842 38.8983158,26.1370175 38.91417,26.164386 C38.9291336,26.2031579 38.943919,26.2480702 38.9604858,26.2880702 L39.8857328,28.8794737 C39.9459433,29.0529825 40.0061538,29.2359649 40.0713522,29.3835088 C40.1304939,29.5150877 40.2218785,29.5668421 40.3827368,29.5682456 L40.434753,29.5682456 L40.434753,29.7605263 L40.4117733,29.7594737 Z" id="Fill-37" fill="#1A1919"></path>
                            <path d="M41.6813603,29.252807 C41.6813603,29.4515789 41.8213765,29.5105263 41.9822348,29.5307018 C42.1888745,29.5457895 42.4151093,29.5457895 42.6470445,29.5203509 C42.8577814,29.4957895 43.0391255,29.377193 43.1292632,29.252807 C43.2096032,29.1435088 43.2548502,29.0050877 43.2853117,28.8961404 L43.4315628,28.8961404 C43.3761619,29.1784211 43.3054413,29.4566667 43.2448745,29.7387719 C42.8030931,29.7387719 42.3593522,29.7191228 41.9175709,29.7191228 C41.47383,29.7191228 41.0318704,29.7387719 40.5891984,29.7387719 L40.5891984,29.5892982 L40.6584939,29.5892982 C40.8401943,29.5892982 41.0368583,29.5649123 41.0368583,29.2575439 L41.0368583,26.7115789 C41.0368583,26.4533333 40.8401943,26.4287719 40.6584939,26.4287719 L40.5891984,26.4287719 L40.5891984,26.28 C40.8551579,26.28 41.1171984,26.2998246 41.3836923,26.2998246 C41.6407449,26.2998246 41.8920972,26.28 42.1486154,26.28 L42.1486154,26.4287719 L42.0221377,26.4287719 C41.8315304,26.4287719 41.6813603,26.4342105 41.6813603,26.6961404 L41.6813603,29.252807" id="Fill-38" fill="#1A1919"></path>
                            <path d="M43.2267045,29.7163158 C43.2847773,29.4478947 43.3508664,29.1850877 43.4048421,28.9173684 L43.3015223,28.9173684 C43.2703482,29.0250877 43.2256356,29.1578947 43.1465425,29.2663158 C43.052664,29.3942105 42.8665101,29.515614 42.6481134,29.5419298 C42.5162915,29.5549123 42.3860729,29.5621053 42.2622672,29.5621053 C42.165004,29.5621053 42.070413,29.5578947 41.9797409,29.5517544 C41.8156761,29.5333333 41.6573117,29.4645614 41.6578462,29.252807 L41.6578462,26.6961404 C41.6578462,26.4207018 41.8347368,26.4070175 42.0221377,26.4070175 L42.12617,26.4070175 L42.12617,26.3017544 C41.8783806,26.302807 41.6339757,26.3214035 41.3835142,26.3214035 C41.1228988,26.3214035 40.8681619,26.302807 40.6103968,26.3017544 L40.6103968,26.4070175 L40.6584939,26.4070175 C40.8380567,26.4070175 41.0578785,26.4378947 41.0578785,26.7108772 L41.0578785,29.2577193 C41.0578785,29.5782456 40.8393036,29.6115789 40.6584939,29.6115789 L40.6103968,29.6115789 L40.6103968,29.7163158 C41.0452308,29.7159649 41.4802429,29.6973684 41.9173927,29.6973684 C42.3545425,29.6973684 42.7911579,29.7159649 43.2267045,29.7163158 M43.2448745,29.7594737 C42.8014899,29.7594737 42.3586397,29.7398246 41.9173927,29.7398246 C41.4745425,29.7398246 41.0318704,29.7594737 40.5879514,29.7594737 L40.5671093,29.7594737 L40.5671093,29.5680702 L40.6584939,29.5680702 C40.8409069,29.5638596 41.0129879,29.5517544 41.0151255,29.2577193 L41.0151255,26.7108772 C41.0129879,26.4696491 40.8416194,26.4533333 40.6584939,26.4501754 L40.5671093,26.4501754 L40.5671093,26.2585965 L40.5879514,26.2585965 C40.8558704,26.2585965 41.1177328,26.2780702 41.3835142,26.2780702 C41.6391417,26.2780702 41.8903158,26.2585965 42.1486154,26.2585965 L42.1691012,26.2585965 L42.1691012,26.4501754 L42.0221377,26.4501754 C41.8274332,26.4552632 41.7059433,26.4468421 41.7020243,26.6961404 L41.7020243,29.252807 C41.7034494,29.4373684 41.8261862,29.487193 41.9834818,29.5091228 C42.0721943,29.5154386 42.1653603,29.5185965 42.2622672,29.5185965 C42.3855385,29.5185965 42.5136194,29.512807 42.6433036,29.4992982 C42.8483401,29.4754386 43.0248745,29.3589474 43.1116275,29.2403509 C43.1889393,29.1350877 43.2334737,28.9987719 43.2635789,28.8908772 L43.2682105,28.874386 L43.4575709,28.874386 L43.4529393,28.9007018 C43.3961134,29.1838596 43.326996,29.4607018 43.2660729,29.742807 L43.2616194,29.7594737 L43.2448745,29.7594737" id="Fill-39" fill="#1A1919"></path>
                            <path d="M43.2847773,26.6626316 L43.3474818,26.6626316 C43.4157085,26.6626316 43.4477733,26.6115789 43.4477733,26.5296491 C43.4477733,26.4464912 43.3986073,26.4173684 43.343919,26.4173684 L43.2847773,26.4173684 L43.2847773,26.6626316 Z M43.1062834,26.9377193 L43.1062834,26.9121053 C43.1714818,26.9029825 43.183417,26.9050877 43.183417,26.8650877 L43.183417,26.4789474 C43.183417,26.4249123 43.1775385,26.4061404 43.1084211,26.4091228 L43.1084211,26.3826316 L43.3799028,26.3826316 C43.4730688,26.3826316 43.5585749,26.4261404 43.5585749,26.5207018 C43.5585749,26.5987719 43.5065587,26.6559649 43.4335223,26.6785965 L43.5206316,26.7980702 C43.5610688,26.8519298 43.6070283,26.9029825 43.6373117,26.9210526 L43.6373117,26.9377193 L43.5338138,26.9377193 C43.4844696,26.9377193 43.441004,26.8349123 43.3437409,26.6975439 L43.2847773,26.6975439 L43.2847773,26.8707018 C43.2847773,26.9050877 43.2970688,26.9029825 43.3624453,26.9121053 L43.3624453,26.9377193 L43.1062834,26.9377193 Z M43.3699271,27.0854386 C43.6070283,27.0854386 43.7887287,26.8866667 43.7887287,26.6626316 C43.7887287,26.4378947 43.6097004,26.2370175 43.3699271,26.2370175 C43.1317571,26.2370175 42.9498785,26.4378947 42.9498785,26.6626316 C42.9498785,26.8866667 43.1317571,27.0854386 43.3699271,27.0854386 Z M43.3699271,26.1394737 C43.6732955,26.1394737 43.8997085,26.3689474 43.8997085,26.6626316 C43.8997085,26.9552632 43.6732955,27.182807 43.3699271,27.182807 C43.0670931,27.182807 42.8397895,26.9552632 42.8397895,26.6626316 C42.8397895,26.3689474 43.0670931,26.1394737 43.3699271,26.1394737 Z" id="Fill-40" fill="#1A1919"></path>
                        </g>
                    </g>
                </g>
            </g>
        </g>
    </g>
</svg>