<?xml version="1.0" encoding="UTF-8"?>
<svg width="70px" height="31px" viewBox="0 0 70 31" version="1.1" xmlns="http://www.w3.org/2000/svg" xmlns:xlink="http://www.w3.org/1999/xlink">
    <!-- Generator: Sketch 51.3 (57544) - http://www.bohemiancoding.com/sketch -->
    <title>hipercard</title>
    <desc>Created with Sketch.</desc>
    <defs>
        <polygon id="path-1" points="0 0.0356429156 69.9202549 0.0356429156 69.9202549 30.9007371 0 30.9007371"></polygon>
    </defs>
    <g id="Symbols" stroke="none" stroke-width="1" fill="none" fill-rule="evenodd">
        <g id="11---Footer" transform="translate(-1198.000000, -138.000000)">
            <g id="cartões">
                <g transform="translate(998.000000, 68.000000)">
                    <g id="hipercard" transform="translate(200.000000, 70.000000)">
                        <g id="Group-3">
                            <mask id="mask-2" fill="white">
                                <use xlink:href="#path-1"></use>
                            </mask>
                            <g id="Clip-2"></g>
                            <path d="M19.194549,0.0356429156 C16.7811961,0.0356429156 11.947902,0.0356429156 11.947902,0.0356429156 C8.74601961,0.189213759 6.12870588,1.49742015 5.37298039,4.19514333 C4.97892157,5.60206388 4.76205882,7.14723997 4.45392157,8.60567568 C2.88743137,16.0214906 1.49841176,23.6414169 0,30.9090909 L56.4169804,30.9090909 C60.7785294,30.9090909 63.7731569,29.9741605 64.582549,26.4627764 C64.9584902,24.8315561 65.3186471,22.9838329 65.6783922,21.1916626 C67.0805882,14.2039803 68.4840196,7.21671581 69.9202549,0.0356429156 L19.194549,0.0356429156" id="Fill-1" fill="#842124" mask="url(#mask-2)"></path>
                        </g>
                        <path d="M48.3830392,18.440475 C47.5997255,19.2183538 45.400902,19.439312 45.6258627,17.5798935 C45.8126667,16.0355528 47.4701569,15.7073874 49.2666863,15.9304341 C49.1331373,16.7751433 48.9799608,17.8477723 48.3830392,18.440475 Z M45.9086078,12.4164046 C45.8338039,12.8424488 45.7189216,13.2279771 45.6258627,13.6355037 C46.5228235,13.4074447 49.3158235,12.7079525 49.5849804,13.9223178 C49.6743333,14.3258067 49.5201961,14.7544963 49.4081961,15.0698526 C46.8824314,14.8271744 44.8238824,15.252801 44.282549,17.0778296 C43.9199216,18.3002703 44.3231765,19.5032187 45.0956471,19.8390418 C46.5833529,20.4854873 48.3929216,19.7449222 49.0193529,18.7274283 C48.9542941,19.0796806 48.8926667,19.4354136 48.9132549,19.8748239 L50.2211569,19.8748239 C50.2350196,18.6042097 50.4172941,17.5757166 50.61,16.4323587 C50.7742941,15.4587224 51.0832549,14.4948321 51.0341176,13.6355037 C50.9218431,11.6674857 47.7077451,12.3636364 45.9086078,12.4164046 Z M59.0230392,19.0500246 C57.9998039,19.0723014 57.491,18.4298935 57.4676667,17.364783 C57.426902,15.4993776 58.233549,13.4269369 59.8714118,13.2410647 C60.634,13.1546028 61.1861765,13.3344881 61.7449412,13.528018 C61.2320196,15.6232924 61.4171765,18.9979525 59.0230392,19.0500246 Z M62.4165294,9.18918919 C62.2862745,10.3478624 62.112098,11.4621212 61.886451,12.5238903 C58.1579216,11.3267895 55.8712549,14.1094431 55.9122941,17.5439722 C55.9203922,18.2082391 56.0330784,18.8669369 56.4426471,19.3368387 C57.1484118,20.1466011 59.1693529,20.3402703 60.1895686,19.6597133 C60.3872157,19.5280016 60.5889804,19.2882473 60.7199216,19.1218673 C60.8181961,18.9965602 60.9743922,18.6688124 61.0025294,18.7630713 C60.949,19.1271581 60.8688431,19.4642342 60.8612941,19.8748239 L62.2398824,19.8748239 C62.5054706,16.0086814 63.3270784,12.706421 63.9366275,9.18918919 L62.4165294,9.18918919 Z M23.4973529,18.4763964 C22.6841176,19.3500655 20.6848627,19.3366994 20.5281176,17.8667076 C20.4597647,17.2270844 20.6947451,16.5564128 20.8108627,15.8946519 C20.9283529,15.2248157 21.012902,14.5821294 21.1288824,13.9940213 C21.929902,13.0018673 24.2836863,12.8821294 24.5225098,14.5320066 C24.7297647,15.9644062 24.1708627,17.7528174 23.4973529,18.4763964 Z M24.6992941,12.4164046 C23.4128039,11.9261753 21.8448039,12.5113595 21.1651176,13.0680016 C21.167451,13.0925061 21.1489216,13.0958477 21.1288824,13.0976577 C21.140549,13.0877723 21.1530392,13.077887 21.1651176,13.0680016 C21.1649804,13.0659132 21.1648431,13.0641032 21.1642941,13.0618755 C21.1758235,12.8223997 21.2588627,12.6557412 21.2703922,12.4164046 L19.9624902,12.4164046 C19.417451,16.0947256 18.7711176,19.6701556 18.0889608,23.209525 L19.6089216,23.209525 C19.8289412,21.8310074 19.9742941,20.3768878 20.2806471,19.0859459 C20.6277647,20.4437183 22.8943922,20.1841933 23.8507843,19.6597133 C25.8243725,18.577199 27.3465294,13.4251269 24.6992941,12.4164046 Z M31.9103922,14.9981491 L28.3402549,14.9981491 C28.4532157,14.1655528 29.1916471,13.2503931 30.3550196,13.2052826 C31.4500392,13.1628174 32.2340392,13.6130876 31.9103922,14.9981491 Z M30.4611176,12.2729975 C29.3628039,12.3587633 28.4344118,12.6794103 27.7746275,13.3844717 C26.9653725,14.2493694 26.3099804,16.1614169 26.502,17.902629 C26.7759608,20.3867731 29.8250784,20.2976658 32.2639608,19.6954955 C32.3054118,19.2595659 32.409451,18.8868468 32.4760196,18.4763964 C31.4713137,18.8577477 29.7269412,19.3900246 28.6936863,18.7274283 C27.9135294,18.2270352 27.909,16.9599017 28.1634706,15.8587305 C29.8025686,15.8058231 31.5061765,15.8159869 33.1476078,15.8587305 C33.2517843,15.0782064 33.5497647,14.2272318 33.2889804,13.4563145 C32.9450196,12.4385422 31.7139804,12.1751188 30.4611176,12.2729975 Z M17.0992157,12.4164046 C17.0580392,12.4223915 17.0607843,12.4730713 17.0638039,12.5238903 C16.728902,15.0647011 16.2756863,17.4856347 15.7913137,19.8748239 L17.3112745,19.8748239 C17.6765098,17.3168878 18.0948627,14.812973 18.6191765,12.4164046 L17.0992157,12.4164046 Z M56.7608039,12.4521867 C55.4173529,11.7709337 54.299,12.9141523 53.8622549,13.5995823 C53.9866078,13.247887 53.9937451,12.7770106 54.1095882,12.4164046 L52.7662745,12.4164046 C52.4041961,14.9774038 51.967451,17.462801 51.4583725,19.8748239 L53.0137451,19.8748239 C53.0236275,18.8862899 53.2149608,18.1550532 53.3671765,17.1854545 C53.6923333,15.1155201 54.1694314,12.8453726 56.5487451,13.528018 C56.6276667,13.1778542 56.6604706,12.7807699 56.7608039,12.4521867 Z M39.6871176,18.1177396 C39.5471176,17.7505897 39.5107451,17.1442424 39.5457451,16.6833907 C39.6243922,15.64724 39.9964902,14.3858149 40.570902,13.8148321 C41.363549,13.0266503 42.9283922,13.1571089 44.176451,13.5995823 C44.2151569,13.1728419 44.2997059,12.792326 44.3532353,12.3806224 C42.3062157,12.0414578 40.3636471,12.2523915 39.3336863,13.3486896 C38.325549,14.4218755 37.6645294,16.8884767 38.1317451,18.440475 C38.6787059,20.256593 41.1306275,20.3553071 43.1161569,19.6597133 C43.2038627,19.2946519 43.2503922,18.8876822 43.3282157,18.5121785 C42.2433529,19.0839967 40.1692941,19.3811138 39.6871176,18.1177396 Z M38.8388824,12.4164046 C37.4910392,11.8642179 36.4315686,12.7973382 35.9403333,13.6714251 C36.0516471,13.2825553 36.0976275,12.8271335 36.1876667,12.4164046 L34.8443529,12.4164046 C34.5160392,14.9998198 34.0319412,17.4252088 33.5718627,19.8748239 L35.0919608,19.8748239 C35.3049804,18.4207043 35.3969412,16.4607617 35.8695098,15.0698526 C36.2472353,13.9583784 37.2357451,13.0114742 38.662098,13.528018 C38.6821373,13.1179853 38.7978431,12.8049959 38.8388824,12.4164046 Z M14.3420392,9.40429975 C14.124902,10.8334971 13.8803137,12.2348485 13.6350392,13.6355037 C12.0603137,13.6523505 10.4525098,13.7144472 8.93364706,13.5995823 C9.2205098,12.2294185 9.4262549,10.7766912 9.71119608,9.40429975 L8.01458824,9.40429975 C7.40709804,12.8999509 6.85464706,16.4511548 6.17647059,19.8748239 L7.9084902,19.8748239 C8.1802549,18.1184357 8.43431373,16.344226 8.79213725,14.6754136 C10.269,14.6385176 12.0390392,14.5741933 13.4582549,14.711335 C13.1656275,16.446421 12.8120588,18.1195495 12.5391961,19.8748239 L14.2713529,19.8748239 C14.8277843,16.3276577 15.4142745,12.8108436 16.1094706,9.40429975 L14.3420392,9.40429975 Z M18.6545882,10.9820557 C18.9576471,10.7704259 19.3478627,9.80583948 18.9020588,9.40429975 C18.7608235,9.27718264 18.5244706,9.24028665 18.1950588,9.29681409 C17.8893922,9.34916462 17.7135686,9.4544226 17.5941569,9.61941032 C17.402,9.88478296 17.2260392,10.6847993 17.5233333,10.9820557 C17.8129412,11.2715152 18.4617451,11.1166912 18.6545882,10.9820557 Z" id="Fill-4" fill="#FFFFFE"></path>
                    </g>
                </g>
            </g>
        </g>
    </g>
</svg>