<?xml version="1.0" encoding="UTF-8"?>
<svg width="70px" height="40px" viewBox="0 0 70 40" version="1.1" xmlns="http://www.w3.org/2000/svg" xmlns:xlink="http://www.w3.org/1999/xlink">
    <!-- Generator: Sketch 51.3 (57544) - http://www.bohemiancoding.com/sketch -->
    <title>mastercard@2x</title>
    <desc>Created with Sketch.</desc>
    <defs>
        <polygon id="path-1" points="0.0766434783 0.117742424 0.746271937 0.117742424 0.746271937 0.757575758 0.0766434783 0.757575758"></polygon>
        <polygon id="path-3" points="0 0.0692424242 19.4727 0.0692424242 19.4727 23.694803 0 23.694803"></polygon>
        <polygon id="path-5" points="0.0498213439 0.0692424242 19.5226909 0.0692424242 19.5226909 23.6948333 0.0498213439 23.6948333"></polygon>
    </defs>
    <g id="Symbols" stroke="none" stroke-width="1" fill="none" fill-rule="evenodd">
        <g id="11---Footer" transform="translate(-1098.000000, -68.000000)">
            <g id="cartões">
                <g transform="translate(998.000000, 68.000000)">
                    <g id="mastercard" transform="translate(100.000000, 0.000000)">
                        <rect id="Rectangle-12-Copy" fill="#FFFFFF" x="0" y="0" width="70" height="40" rx="3"></rect>
                        <g id="Group-34" transform="translate(16.000000, 5.000000)">
                            <path d="M6.68026838,26.8823788 C6.56850949,26.7722273 6.43594032,26.6866212 6.28240672,26.6255606 C6.12887312,26.5645 5.96084941,26.5338939 5.77818142,26.5338939 C5.68152925,26.5338939 5.58117747,26.5422273 5.47697194,26.5584394 C5.37292055,26.5749545 5.27087312,26.6037424 5.17098379,26.6452576 C5.07109447,26.6866212 4.97613794,26.7438939 4.88580593,26.8169242 C4.79562806,26.8901061 4.71731976,26.9822273 4.65072688,27.0934394 C4.54328419,26.9188939 4.3977664,26.7820758 4.21417352,26.6828333 C4.03058063,26.5835909 3.82062806,26.5338939 3.58431581,26.5338939 C3.50492846,26.5338939 3.4227664,26.5410152 3.33782964,26.5552576 C3.25304704,26.5695 3.16872688,26.5940455 3.08502332,26.6288939 C3.00116561,26.6638939 2.92116166,26.7111667 2.84501146,26.7711667 C2.76870711,26.8311667 2.69949368,26.9069242 2.637217,26.9985909 L2.637217,26.6157121 L1.96712609,26.6157121 L1.96712609,29.7502576 L2.64353715,29.7502576 L2.64353715,28.0128333 C2.64353715,27.879803 2.66511818,27.7614697 2.70812609,27.6578333 C2.75097984,27.5543485 2.80847787,27.4675303 2.88046601,27.3976818 C2.9523,27.3278333 3.03662016,27.2751061 3.13327233,27.2390455 C3.22992451,27.2029848 3.33305099,27.1851061 3.44265178,27.1851061 C3.67017747,27.1851061 3.84698775,27.2560152 3.97262016,27.3976818 C4.09825257,27.5395 4.1609917,27.7423788 4.1609917,28.0063182 L4.1609917,29.7502576 L4.83755692,29.7502576 L4.83755692,28.0128333 C4.83755692,27.879803 4.85898379,27.7614697 4.9019917,27.6578333 C4.9449996,27.5543485 5.00234348,27.4675303 5.07433162,27.3976818 C5.14631976,27.3278333 5.23063992,27.2751061 5.32729209,27.2390455 C5.42394427,27.2029848 5.52707075,27.1851061 5.63651739,27.1851061 C5.86419723,27.1851061 6.04085336,27.2560152 6.16648577,27.3976818 C6.29211818,27.5395 6.35485731,27.7423788 6.35485731,28.0063182 L6.35485731,29.7502576 L7.03142253,29.7502576 L7.03142253,27.7805606 C7.03142253,27.5973788 7.00090079,27.4293485 6.93970316,27.2767727 C6.87850553,27.1240455 6.79202727,26.9926818 6.68026838,26.8823788" id="Fill-1" fill="#1F1410"></path>
                            <path d="M10.2214221,28.5820455 C10.1748688,28.7043182 10.1093549,28.8100758 10.0250348,28.8994697 C9.94071462,28.9890152 9.83974625,29.0591667 9.72212964,29.1105303 C9.60451304,29.1617424 9.47348538,29.1873485 9.32935494,29.1873485 C9.1784419,29.1873485 9.04356047,29.1606818 8.92486482,29.1073485 C8.80616917,29.0538636 8.70566324,28.9818939 8.62365534,28.8912879 C8.54164743,28.8008333 8.4782917,28.6944697 8.43389644,28.5723485 C8.38950119,28.4502273 8.36730356,28.3203788 8.36730356,28.1829545 C8.36730356,28.0455303 8.38950119,27.9158333 8.43389644,27.7935606 C8.4782917,27.6714394 8.54164743,27.5650758 8.62365534,27.4746212 C8.70566324,27.3841667 8.80616917,27.3120455 8.92486482,27.2587121 C9.04356047,27.2052273 9.1784419,27.1784091 9.32935494,27.1784091 C9.47348538,27.1784091 9.60451304,27.2041667 9.72212964,27.2553788 C9.83974625,27.3067424 9.94071462,27.3770455 10.0250348,27.4664394 C10.1093549,27.5559848 10.1748688,27.6617424 10.2214221,27.7837121 C10.2681296,27.9059848 10.2914063,28.0390152 10.2914063,28.1829545 C10.2914063,28.3268939 10.2681296,28.4599242 10.2214221,28.5820455 Z M10.2480901,26.9952273 C10.137102,26.8556818 9.9996,26.7438636 9.83527589,26.6599242 C9.67110593,26.5759848 9.47471858,26.5338636 9.24611383,26.5338636 C9.02197945,26.5338636 8.81341423,26.5749242 8.62041818,26.6567424 C8.42726798,26.7384091 8.25862767,26.8525 8.11434308,26.9985606 C7.97021265,27.1447727 7.85691225,27.3187121 7.7747502,27.5203788 C7.69274229,27.722197 7.65173834,27.9429545 7.65173834,28.1829545 C7.65173834,28.4229545 7.69274229,28.6437121 7.7747502,28.8453788 C7.85691225,29.047197 7.97021265,29.2212879 8.11434308,29.3673485 C8.25862767,29.5134091 8.42726798,29.6273485 8.62041818,29.7091667 C8.81341423,29.7909848 9.02197945,29.8318939 9.24611383,29.8318939 C9.47471858,29.8318939 9.67110593,29.7905303 9.83527589,29.7076515 C9.9996,29.6247727 10.137102,29.5134091 10.2480901,29.3740152 L10.2480901,29.7502273 L10.94377,29.7502273 L10.94377,26.6156818 L10.2480901,26.6156818 L10.2480901,26.9952273 Z" id="Fill-3" fill="#1F1410"></path>
                            <path d="M14.1417237,28.1781061 C13.9464154,28.0287121 13.6744945,27.9288636 13.326115,27.8785606 L12.996696,27.8296212 C12.9233206,27.8187121 12.8545696,27.8062879 12.7901348,27.7918939 C12.7258542,27.777803 12.6703601,27.7587121 12.6238067,27.7346212 C12.5772534,27.7106818 12.539949,27.6802273 12.5123561,27.6431061 C12.4846091,27.6061364 12.4707356,27.5602273 12.4707356,27.5058333 C12.4707356,27.3944697 12.5233008,27.3044697 12.6288937,27.2356818 C12.7341783,27.1670455 12.8823166,27.132803 13.0731545,27.132803 C13.1730439,27.132803 13.2712375,27.1414394 13.3677356,27.1588636 C13.4642336,27.1764394 13.5557988,27.1981061 13.6424312,27.2243182 C13.7289095,27.2505303 13.8076802,27.2793182 13.8787435,27.3109848 C13.9496526,27.3426515 14.0097711,27.372803 14.0584826,27.4009848 L14.3579964,26.867803 C14.1916684,26.7629545 13.9974391,26.6817424 13.775617,26.6238636 C13.5536407,26.5661364 13.3173285,26.537197 13.0665261,26.537197 C12.8622771,26.537197 12.6793008,26.5606818 12.5172889,26.6076515 C12.3552771,26.6544697 12.2171585,26.7209848 12.1027791,26.807197 C11.9885538,26.8934091 11.9008423,26.9985606 11.8397988,27.122803 C11.7787553,27.247197 11.7483877,27.3867424 11.7483877,27.5417424 C11.7483877,27.7947727 11.8397988,27.9991667 12.0229292,28.1552273 C12.2060597,28.3111364 12.4750518,28.4131061 12.8302138,28.4611364 L13.1630241,28.5035606 C13.3538621,28.5297727 13.4936763,28.5718939 13.5824668,28.6294697 C13.6712573,28.6873485 13.7156526,28.7609848 13.7156526,28.8503788 C13.7156526,28.9682576 13.6546091,29.0614394 13.5325221,29.1300758 C13.4104352,29.1987121 13.229617,29.2332576 12.9899134,29.2332576 C12.8590399,29.2332576 12.7420399,29.2244697 12.6387593,29.2070455 C12.5356328,29.1896212 12.4412929,29.1661364 12.3558937,29.1367424 C12.2703403,29.1073485 12.1938818,29.0734091 12.1262099,29.0352273 C12.0583838,28.9970455 11.9957988,28.9562879 11.9381466,28.9126515 L11.615202,29.4261364 C11.7305063,29.5112879 11.8515142,29.5800758 11.9780715,29.6325 C12.1044747,29.6846212 12.2287198,29.7255303 12.3508067,29.7550758 C12.4728937,29.7846212 12.588198,29.8040152 12.6970281,29.8140152 C12.805704,29.8237121 12.9011229,29.8287121 12.983285,29.8287121 C13.2118897,29.8287121 13.4166012,29.8037121 13.5974194,29.7534091 C13.7783917,29.7032576 13.9302296,29.6329545 14.0535498,29.5423485 C14.1767158,29.4518939 14.2709016,29.3438636 14.3364154,29.2184091 C14.4017751,29.0931061 14.4346091,28.9550758 14.4346091,28.8046212 C14.4346091,28.5362879 14.337032,28.3273485 14.1417237,28.1781061" id="Fill-5" fill="#1F1410"></path>
                            <path d="M18.7099186,27.9147273 C18.7276458,27.8012424 18.7587842,27.697 18.8031794,27.6021515 C18.8475747,27.5074545 18.9047644,27.4254848 18.9745945,27.3568485 C19.0445787,27.2880606 19.1276656,27.2353333 19.2241636,27.1982121 C19.3208158,27.1610909 19.4311874,27.1424545 19.5554324,27.1424545 C19.7772545,27.1424545 19.9582269,27.2101818 20.0980411,27.3453333 C20.2378553,27.4806364 20.3264917,27.6704848 20.3642585,27.9147273 L18.7099186,27.9147273 Z M20.6556024,26.9903333 C20.5234957,26.8453333 20.3648751,26.7330606 20.1795866,26.6533636 C19.994298,26.5736667 19.7906656,26.5339697 19.5688435,26.5339697 C19.3334561,26.5339697 19.1188791,26.5736667 18.924804,26.6533636 C18.7304206,26.7330606 18.5634759,26.8453333 18.4236617,26.9903333 C18.2838474,27.1353333 18.1751715,27.3094242 18.0974798,27.512303 C18.0197881,27.7151818 17.9809423,27.9386667 17.9809423,28.1830606 C17.9809423,28.4315455 18.0208672,28.657303 18.1008711,28.8601818 C18.1807209,29.0630606 18.292634,29.2365455 18.4369186,29.3804848 C18.5813573,29.5244242 18.7532348,29.6356364 18.9530134,29.7141212 C19.1527921,29.7927576 19.3724561,29.8318485 19.6121597,29.8318485 C19.8538672,29.8318485 20.0841676,29.7992727 20.3027526,29.7338182 C20.5211834,29.6683636 20.7283613,29.5538182 20.9235154,29.3901818 L20.5774482,28.9027576 C20.4442625,29.0074545 20.2972032,29.0888182 20.1362704,29.1465455 C19.9753375,29.2044242 19.8150213,29.2332121 19.6553217,29.2332121 C19.5420213,29.2332121 19.4333455,29.2180606 19.3291399,29.187303 C19.2247802,29.1568485 19.1305945,29.1095758 19.0461202,29.0450303 C18.9618,28.9807879 18.8898119,28.8983636 18.8296933,28.7980606 C18.769883,28.6977576 18.7287249,28.576697 18.7066814,28.4348788 L21.0633296,28.4348788 C21.0678,28.3956364 21.0710372,28.3541212 21.0733494,28.3104848 C21.0755075,28.2668485 21.0767407,28.2233636 21.0767407,28.1797273 C21.0767407,27.9354848 21.0394364,27.712303 20.965136,27.5106364 C20.8906814,27.3088182 20.7877091,27.1353333 20.6556024,26.9903333 Z" id="Fill-7" fill="#1F1410"></path>
                            <path d="M29.8719652,28.5820455 C29.8252577,28.7043182 29.7597439,28.8100758 29.6755779,28.8994697 C29.5911036,28.9890152 29.4901352,29.0591667 29.3725186,29.1105303 C29.254902,29.1617424 29.1240285,29.1873485 28.9797439,29.1873485 C28.8288308,29.1873485 28.6939494,29.1606818 28.5754079,29.1073485 C28.4565581,29.0538636 28.3562063,28.9818939 28.2740443,28.8912879 C28.1920364,28.8008333 28.1286806,28.6944697 28.0842854,28.5723485 C28.0398901,28.4502273 28.0178466,28.3203788 28.0178466,28.1829545 C28.0178466,28.0455303 28.0398901,27.9158333 28.0842854,27.7935606 C28.1286806,27.6714394 28.1920364,27.5650758 28.2740443,27.4746212 C28.3562063,27.3841667 28.4565581,27.3120455 28.5754079,27.2587121 C28.6939494,27.2052273 28.8288308,27.1784091 28.9797439,27.1784091 C29.1240285,27.1784091 29.254902,27.2041667 29.3725186,27.2553788 C29.4901352,27.3067424 29.5911036,27.3770455 29.6755779,27.4664394 C29.7597439,27.5559848 29.8252577,27.6617424 29.8719652,27.7837121 C29.9185186,27.9059848 29.9417953,28.0390152 29.9417953,28.1829545 C29.9417953,28.3268939 29.9185186,28.4599242 29.8719652,28.5820455 Z M29.8984791,26.9952273 C29.7874909,26.8556818 29.6499889,26.7438636 29.4856648,26.6599242 C29.321649,26.5759848 29.1251075,26.5338636 28.8966569,26.5338636 C28.6723684,26.5338636 28.4638032,26.5749242 28.2708071,26.6567424 C28.0776569,26.7384091 27.9091708,26.8525 27.764732,26.9985606 C27.6206016,27.1447727 27.5073012,27.3187121 27.4252933,27.5203788 C27.3431312,27.722197 27.3021273,27.9429545 27.3021273,28.1829545 C27.3021273,28.4229545 27.3431312,28.6437121 27.4252933,28.8453788 C27.5073012,29.047197 27.6206016,29.2212879 27.764732,29.3673485 C27.9091708,29.5134091 28.0776569,29.6273485 28.2708071,29.7091667 C28.4638032,29.7909848 28.6723684,29.8318939 28.8966569,29.8318939 C29.1251075,29.8318939 29.321649,29.7905303 29.4856648,29.7076515 C29.6499889,29.6247727 29.7874909,29.5134091 29.8984791,29.3740152 L29.8984791,29.7502273 L30.594313,29.7502273 L30.594313,26.6156818 L29.8984791,26.6156818 L29.8984791,26.9952273 Z" id="Fill-9" fill="#1F1410"></path>
                            <path d="M17.1248383,29.1252121 C17.0127711,29.1665758 16.9023996,29.1873333 16.7935696,29.1873333 C16.7225063,29.1873333 16.65653,29.1765758 16.5954866,29.1546061 C16.5344431,29.1329394 16.4812613,29.0985455 16.435787,29.0517273 C16.3903126,29.0047576 16.3540874,28.944303 16.3275735,28.8700606 C16.3009055,28.7958182 16.2876486,28.7064242 16.2876486,28.6017273 L16.2876486,27.2373333 L17.4049292,27.2373333 L17.4049292,26.6158182 L16.2876486,26.6158182 L16.2876486,25.6670303 L15.5885775,25.6670303 L15.5885775,26.6158182 L14.9528621,26.6158182 L14.9528621,27.2373333 L15.5885775,27.2373333 L15.5885775,28.6149091 C15.5885775,29.0314242 15.6889292,29.3383939 15.889787,29.5358182 C16.0906447,29.7333939 16.3719688,29.8318788 16.7336051,29.8318788 C16.9355419,29.8318788 17.1169767,29.8014242 17.2779095,29.7403636 C17.3842731,29.7000606 17.4829292,29.6538485 17.5752652,29.6029394 L17.3374115,29.0303636 C17.2700478,29.0656667 17.199447,29.0974848 17.1248383,29.1252121" id="Fill-11" fill="#1F1410"></path>
                            <path d="M23.4057806,26.5339242 C23.2104723,26.5339242 23.0341245,26.5687727 22.8764289,26.6386212 C22.7188874,26.7084697 22.5869348,26.8765 22.480417,27.0271061 L22.480417,26.6157424 L21.8487095,26.6157424 L21.8487095,29.7502879 L22.4870455,29.7502879 L22.4870455,28.0258939 C22.4870455,27.8930152 22.5060059,27.7740758 22.5436186,27.6692273 C22.5813854,27.5646818 22.6334881,27.4763485 22.7002352,27.4042273 C22.7666739,27.3324091 22.8465237,27.2777121 22.9399387,27.2407424 C23.0330455,27.2036212 23.1349387,27.1851364 23.246081,27.1851364 C23.3304012,27.1851364 23.4213498,27.1948333 23.5189269,27.2145303 C23.5688715,27.2245303 23.6152708,27.2369545 23.6588953,27.2513485 L23.8645316,26.5971061 C23.8087292,26.5798333 23.7521561,26.5649848 23.6937332,26.5552879 C23.6081798,26.5410455 23.5122984,26.5339242 23.4057806,26.5339242" id="Fill-13" fill="#1F1410"></path>
                            <path d="M33.076902,26.5339242 C32.8815937,26.5339242 32.7052458,26.5687727 32.5475502,26.6386212 C32.3900087,26.7084697 32.2580561,26.8765 32.1515383,27.0271061 L32.1515383,26.6157424 L31.5198308,26.6157424 L31.5198308,29.7502879 L32.1581668,29.7502879 L32.1581668,28.0258939 C32.1581668,27.8930152 32.1769731,27.7740758 32.2147399,27.6692273 C32.2523526,27.5646818 32.3046095,27.4763485 32.3712024,27.4042273 C32.4377953,27.3324091 32.5176451,27.2777121 32.6109059,27.2407424 C32.7040126,27.2036212 32.8060601,27.1851364 32.9170482,27.1851364 C33.0015225,27.1851364 33.0924711,27.1948333 33.1900482,27.2145303 C33.2398387,27.2245303 33.2862379,27.2369545 33.3298625,27.2513485 L33.535653,26.5971061 C33.4796964,26.5798333 33.4231233,26.5649848 33.3648545,26.5552879 C33.2793012,26.5410455 33.1832656,26.5339242 33.076902,26.5339242" id="Fill-15" fill="#1F1410"></path>
                            <path d="M36.299751,28.5820455 C36.2530435,28.7043182 36.1875296,28.8100758 36.1033636,28.8994697 C36.0190435,28.9890152 35.9179209,29.0591667 35.8004585,29.1105303 C35.6826877,29.1617424 35.5518142,29.1873485 35.4076838,29.1873485 C35.2566166,29.1873485 35.1218893,29.1606818 35.0031937,29.1073485 C34.8843439,29.0538636 34.7839921,28.9818939 34.70183,28.8912879 C34.6198221,28.8008333 34.5564664,28.6944697 34.5122253,28.5723485 C34.4676759,28.4502273 34.4456324,28.3203788 34.4456324,28.1829545 C34.4456324,28.0455303 34.4676759,27.9158333 34.5122253,27.7935606 C34.5564664,27.6714394 34.6198221,27.5650758 34.70183,27.4746212 C34.7839921,27.3841667 34.8843439,27.3120455 35.0031937,27.2587121 C35.1218893,27.2052273 35.2566166,27.1784091 35.4076838,27.1784091 C35.5518142,27.1784091 35.6826877,27.2041667 35.8004585,27.2553788 C35.9179209,27.3067424 36.0190435,27.3770455 36.1033636,27.4664394 C36.1875296,27.5559848 36.2530435,27.6617424 36.299751,27.7837121 C36.3463043,27.9059848 36.369581,28.0390152 36.369581,28.1829545 C36.369581,28.3268939 36.3463043,28.4599242 36.299751,28.5820455 Z M36.3262648,25.3417424 L36.3262648,26.9952273 C36.2152767,26.8556818 36.0777747,26.7438636 35.9136047,26.6599242 C35.7494348,26.5759848 35.5528933,26.5338636 35.3244427,26.5338636 C35.1003083,26.5338636 34.8915889,26.5749242 34.6985929,26.6567424 C34.5054427,26.7384091 34.3369565,26.8525 34.1926719,26.9985606 C34.0483874,27.1447727 33.935087,27.3187121 33.8530791,27.5203788 C33.770917,27.722197 33.729913,27.9429545 33.729913,28.1829545 C33.729913,28.4229545 33.770917,28.6437121 33.8530791,28.8453788 C33.935087,29.047197 34.0483874,29.2212879 34.1926719,29.3673485 C34.3369565,29.5134091 34.5054427,29.6273485 34.6985929,29.7091667 C34.8915889,29.7909848 35.1003083,29.8318939 35.3244427,29.8318939 C35.5528933,29.8318939 35.7494348,29.7905303 35.9136047,29.7076515 C36.0777747,29.6247727 36.2152767,29.5134091 36.3262648,29.3740152 L36.3262648,29.7502273 L37.0220988,29.7502273 L37.0220988,25.3417424 L36.3262648,25.3417424 Z" id="Fill-17" fill="#1F1410"></path>
                            <path d="M25.0708802,27.4582576 C25.1595166,27.3699242 25.2649553,27.3012879 25.3870423,27.252197 C25.5091292,27.2029545 25.6410818,27.1784091 25.7832083,27.1784091 C25.9393625,27.1784091 26.0845719,27.2029545 26.2188368,27.252197 C26.3487854,27.2994697 26.4611609,27.3658333 26.5565798,27.4497727 L26.8915482,26.9023485 C26.7659158,26.8038636 26.6245601,26.7229545 26.4671727,26.6599242 C26.2573743,26.5759848 26.0293862,26.5338636 25.7832083,26.5338636 C25.5367221,26.5338636 25.308734,26.5759848 25.0990897,26.6599242 C24.8892913,26.7438636 24.7084731,26.8594697 24.556481,27.0068939 C24.4046431,27.1540152 24.2851767,27.3279545 24.1986984,27.5285606 C24.112066,27.7293182 24.0687498,27.9475 24.0687498,28.1829545 C24.0687498,28.4185606 24.112066,28.6365909 24.1986984,28.8373485 C24.2851767,29.0381061 24.4046431,29.2118939 24.556481,29.3591667 C24.7084731,29.5064394 24.8892913,29.6220455 25.0990897,29.7059848 C25.308734,29.7899242 25.5367221,29.8318939 25.7832083,29.8318939 C26.0293862,29.8318939 26.2573743,29.7899242 26.4671727,29.7059848 C26.6245601,29.6429545 26.7659158,29.562197 26.8915482,29.4635606 L26.5565798,28.9159848 C26.4611609,29.0002273 26.3487854,29.0662879 26.2188368,29.1138636 C26.0845719,29.162803 25.9393625,29.1873485 25.7832083,29.1873485 C25.6410818,29.1873485 25.5091292,29.162803 25.3870423,29.1138636 C25.2649553,29.0647727 25.1595166,28.9959848 25.0708802,28.9075 C24.9820897,28.8193182 24.9121055,28.7135606 24.8610818,28.5903788 C24.8100581,28.4670455 24.7846233,28.3312879 24.7846233,28.1829545 C24.7846233,28.0346212 24.8100581,27.8988636 24.8610818,27.7756818 C24.9121055,27.6523485 24.9820897,27.5465909 25.0708802,27.4582576" id="Fill-19" fill="#1F1410"></path>
                            <g id="Group-23" transform="translate(38.075099, 29.173182)">
                                <mask id="mask-2" fill="white">
                                    <use xlink:href="#path-1"></use>
                                </mask>
                                <g id="Clip-22"></g>
                                <path d="M0.369066403,0.364712121 L0.369066403,0.416681818 L0.429955731,0.416681818 C0.442596047,0.416681818 0.45215336,0.414712121 0.458935968,0.411075758 C0.465718577,0.407136364 0.468955731,0.400469697 0.468955731,0.391075758 C0.468955731,0.381984848 0.465718577,0.375318182 0.458935968,0.371075758 C0.45215336,0.366984848 0.442596047,0.364712121 0.429955731,0.364712121 L0.369066403,0.364712121 Z M0.431343083,0.295621212 C0.470959684,0.295621212 0.501018972,0.304409091 0.521520949,0.321681818 C0.542022925,0.338954545 0.552196838,0.361984848 0.552196838,0.391075758 C0.552196838,0.41380303 0.544951779,0.432590909 0.53030751,0.447590909 C0.515509091,0.462590909 0.494236364,0.472439394 0.466181028,0.477136364 L0.555896443,0.578954545 L0.458935968,0.578954545 L0.378623715,0.480015152 L0.369066403,0.480015152 L0.369066403,0.578954545 L0.288137549,0.578954545 L0.288137549,0.295621212 L0.431343083,0.295621212 Z M0.412536759,0.668651515 C0.4449083,0.668651515 0.475275889,0.662590909 0.503793676,0.650469697 C0.532311462,0.638348485 0.557129644,0.621833333 0.577939921,0.601075758 C0.599058498,0.580166667 0.615552569,0.555772727 0.627730435,0.527742424 C0.63975415,0.499712121 0.645766008,0.469560606 0.645766008,0.437287879 C0.645766008,0.405621212 0.63975415,0.375469697 0.627730435,0.347287879 C0.615552569,0.318954545 0.599058498,0.294560606 0.577939921,0.273954545 C0.557129644,0.253348485 0.532311462,0.236984848 0.503793676,0.224863636 C0.475275889,0.212742424 0.4449083,0.206681818 0.412536759,0.206681818 C0.379240316,0.206681818 0.348256126,0.212742424 0.31958419,0.224863636 C0.290758103,0.236984848 0.265785771,0.253348485 0.244513043,0.273954545 C0.223394466,0.294560606 0.206592095,0.318954545 0.194568379,0.347287879 C0.182544664,0.375469697 0.176532806,0.405621212 0.176532806,0.437287879 C0.176532806,0.469560606 0.182544664,0.499712121 0.194568379,0.527742424 C0.206592095,0.555772727 0.223394466,0.580166667 0.244513043,0.601075758 C0.265785771,0.621833333 0.290758103,0.638348485 0.31958419,0.650469697 C0.348256126,0.662590909 0.379240316,0.668651515 0.412536759,0.668651515 Z M0.412536759,0.117742424 C0.458935968,0.117742424 0.502252174,0.126227273 0.542947826,0.143045455 C0.583489328,0.159863636 0.618789723,0.182742424 0.648849012,0.211681818 C0.679216601,0.240772727 0.702955731,0.274409091 0.720220553,0.313045455 C0.737793676,0.351833333 0.746271937,0.393045455 0.746271937,0.437287879 C0.746271937,0.481075758 0.737793676,0.522287879 0.720220553,0.561227273 C0.702955731,0.600166667 0.679216601,0.634106061 0.648849012,0.663348485 C0.618789723,0.692439394 0.583489328,0.715469697 0.542947826,0.732287879 C0.502252174,0.749106061 0.458935968,0.757590909 0.412536759,0.757590909 C0.365366798,0.757590909 0.320971542,0.749106061 0.280121739,0.732287879 C0.238963636,0.715469697 0.203509091,0.692439394 0.173141502,0.663348485 C0.143082213,0.634106061 0.119497233,0.600166667 0.102386561,0.561227273 C0.0851217391,0.522287879 0.0766434783,0.481075758 0.0766434783,0.437287879 C0.0766434783,0.393045455 0.0851217391,0.351833333 0.102386561,0.313045455 C0.119497233,0.274409091 0.143082213,0.240772727 0.173141502,0.211681818 C0.203509091,0.182742424 0.238963636,0.159863636 0.280121739,0.143045455 C0.320971542,0.126227273 0.365366798,0.117742424 0.412536759,0.117742424 Z" id="Fill-21" fill="#1F1410" mask="url(#mask-2)"></path>
                            </g>
                            <g id="Group-26" transform="translate(0.000000, 0.082273)">
                                <mask id="mask-4" fill="white">
                                    <use xlink:href="#path-3"></use>
                                </mask>
                                <g id="Clip-25"></g>
                                <path d="M14.9092375,11.8819242 C14.9092375,8.12692424 16.6939885,4.78343939 19.4727,2.61980303 C17.4237356,1.0245 14.8352455,0.0691969697 12.0181506,0.0691969697 C5.38075138,0.0691969697 -1.54150198e-05,5.35798485 -1.54150198e-05,11.8819242 C-1.54150198e-05,18.4060152 5.38075138,23.694803 12.0181506,23.694803 C14.8352455,23.694803 17.4237356,22.7395 19.4727,21.1440455 C16.6939885,18.9804091 14.9092375,15.6370758 14.9092375,11.8819242" id="Fill-24" fill="#DF1412" mask="url(#mask-4)"></path>
                            </g>
                            <path d="M14.9092375,11.964197 C14.9092375,15.7193485 16.6939885,19.0626818 19.4727,21.2263182 C22.2515656,19.0626818 24.0363166,15.7193485 24.0363166,11.964197 C24.0363166,8.20919697 22.2515656,4.86571212 19.4727,2.70207576 C16.6939885,4.86571212 14.9092375,8.20919697 14.9092375,11.964197" id="Fill-27" fill="#E97000"></path>
                            <path d="M38.8840328,18.359604 L38.8840328,18.0496162 L38.7832186,18.3170747 L38.6716138,18.3170747 L38.5707996,18.0503838 L38.5707996,18.359604 L38.4656692,18.359604 L38.4656692,17.9129697 L38.6164281,17.9129697 L38.7277245,18.1990061 L38.8384043,17.9129697 L38.9891632,17.9129697 L38.9891632,18.359604 L38.8840328,18.359604 Z M38.1307008,18.359604 L38.1307008,18.0092364 L37.9884202,18.0092364 L37.9884202,17.9129697 L38.3781119,17.9129697 L38.3781119,18.0092364 L38.2358312,18.0092364 L38.2358312,18.359604 L38.1307008,18.359604 Z" id="Fill-29" fill="#F2A300"></path>
                            <g id="Group-33" transform="translate(19.422925, 0.082273)">
                                <mask id="mask-6" fill="white">
                                    <use xlink:href="#path-5"></use>
                                </mask>
                                <g id="Clip-32"></g>
                                <path d="M7.5045249,0.0692272727 C4.68743004,0.0692272727 2.09893992,1.0245303 0.0498213439,2.61983333 C2.82868696,4.7834697 4.61343794,8.12695455 4.61343794,11.8819545 C4.61343794,15.6371061 2.82868696,18.9802879 0.0498213439,21.1440758 C2.09893992,22.7395303 4.68743004,23.6948333 7.5045249,23.6948333 C14.1419241,23.6948333 19.5226909,18.4058939 19.5226909,11.8819545 C19.5226909,5.35801515 14.1419241,0.0692272727 7.5045249,0.0692272727" id="Fill-31" fill="#F2A300" mask="url(#mask-6)"></path>
                            </g>
                        </g>
                    </g>
                </g>
            </g>
        </g>
    </g>
</svg>