<?xml version="1.0" encoding="UTF-8"?>
<svg width="50px" height="49px" viewBox="0 0 50 49" version="1.1" xmlns="http://www.w3.org/2000/svg" xmlns:xlink="http://www.w3.org/1999/xlink">
    <!-- Generator: Sketch 51.3 (57544) - http://www.bohemiancoding.com/sketch -->
    <title>rede shop</title>
    <desc>Created with Sketch.</desc>
    <defs></defs>
    <g id="Symbols" stroke="none" stroke-width="1" fill="none" fill-rule="evenodd">
        <g id="11---Footer" transform="translate(-1008.000000, -129.000000)">
            <g id="cartões">
                <g transform="translate(998.000000, 68.000000)">
                    <g id="rede-shop" transform="translate(10.000000, 61.000000)">
                        <polygon id="Fill-1" fill="#FFF101" points="0 23.2833659 11.4285714 23.2833659 11.4285714 0 0 0"></polygon>
                        <polygon id="Fill-2" fill="#FFF101" points="13.0952381 23.2833659 24.5238095 23.2833659 24.5238095 0 13.0952381 0"></polygon>
                        <polygon id="Fill-3" fill="#FFF101" points="26.1904762 23.2833659 37.6190476 23.2833659 37.6190476 0 26.1904762 0"></polygon>
                        <polygon id="Fill-4" fill="#FFF101" points="38.0952381 23.2833659 49.5238095 23.2833659 49.5238095 0 38.0952381 0"></polygon>
                        <polygon id="Fill-5" fill="#FFF101" points="0 48.3809268 11.4285714 48.3809268 11.4285714 25.097561 0 25.097561"></polygon>
                        <polygon id="Fill-6" fill="#FFF101" points="13.0952381 48.3809268 24.5238095 48.3809268 24.5238095 25.097561 13.0952381 25.097561"></polygon>
                        <polygon id="Fill-7" fill="#FFF101" points="26.1904762 48.3809268 37.6190476 48.3809268 37.6190476 25.097561 26.1904762 25.097561"></polygon>
                        <polygon id="Fill-8" fill="#FFF101" points="38.0952381 48.3809268 49.5238095 48.3809268 49.5238095 25.097561 38.0952381 25.097561"></polygon>
                        <path d="M4.35357143,10.9198293 L4.53928571,10.9198293 C5.10238095,10.9198293 5.53452381,10.7106829 5.83095238,10.2864146 C6.12857143,9.86573171 6.27857143,9.25263415 6.27857143,8.44592683 C6.27857143,7.51373171 6.1202381,6.79904878 5.80714286,6.31263415 C5.49404762,5.82502439 5.04285714,5.58121951 4.44404762,5.58121951 L4.35357143,5.58121951 L4.35357143,10.9198293 Z M2.38095238,20.8046829 L2.38095238,3.58536585 L4.30595238,3.58536585 C5.53809524,3.58536585 6.51309524,4.00126829 7.23809524,4.8294878 C7.96190476,5.6565122 8.32261905,6.77395122 8.32261905,8.17702439 C8.32261905,9.04707317 8.16904762,9.78207317 7.85952381,10.3868049 C7.55119048,10.9879512 7.06666667,11.4791463 6.41785714,11.8568049 C6.91309524,12.1257073 7.325,12.5798537 7.65,13.2144634 C7.97380952,13.8526585 8.2952381,14.8517805 8.61190476,16.2130244 L9.63452381,20.8046829 L7.59047619,20.8046829 L6.68690476,16.6922683 C6.38214286,15.3393902 6.07261905,14.3653659 5.75119048,13.7642195 C5.43095238,13.1630732 5.06309524,12.8654878 4.64285714,12.8654878 C4.60357143,12.8654878 4.56785714,12.8654878 4.53214286,12.8690732 C4.5,12.8738537 4.43690476,12.8905854 4.35357143,12.9156829 L4.35357143,20.8046829 L2.38095238,20.8046829 Z" id="Fill-9" fill="#1A1919"></path>
                        <polyline id="Fill-10" fill="#1A1919" points="15.4761905 20.8046829 15.4761905 3.58536585 21.2559524 3.58536585 21.2559524 5.60153659 17.4488095 5.60153659 17.4488095 10.7728293 20.9666667 10.7728293 20.9666667 12.789 17.4488095 12.789 17.4488095 18.7634146 21.4428571 18.7634146 21.4428571 20.8046829 15.4761905 20.8046829"></polyline>
                        <path d="M29.377381,18.7634146 L29.7380952,18.7634146 C30.9,18.7634146 31.7547619,18.2339756 32.297619,17.1750976 C32.8452381,16.1162195 33.1178571,14.4609756 33.1178571,12.2141463 C33.1178571,9.90756098 32.8488095,8.22721951 32.3059524,7.17790244 C31.7630952,6.12739024 30.9071429,5.60153659 29.7380952,5.60153659 L29.377381,5.60153659 L29.377381,18.7634146 Z M27.3809524,20.8046829 L27.3809524,3.58536585 L29.7142857,3.58536585 C31.5571429,3.58536585 32.9321429,4.30004878 33.8428571,5.72821951 C34.75,7.15639024 35.2059524,9.30760976 35.2059524,12.1890488 C35.2059524,15.0704878 34.75,17.2252927 33.8345238,18.6582439 C32.9238095,20.09 31.5488095,20.8046829 29.7142857,20.8046829 L27.3809524,20.8046829 Z" id="Fill-11" fill="#1A1919"></path>
                        <polyline id="Fill-12" fill="#1A1919" points="40.4761905 20.8046829 40.4761905 3.58536585 46.2559524 3.58536585 46.2559524 5.60153659 42.4488095 5.60153659 42.4488095 10.7728293 45.9666667 10.7728293 45.9666667 12.789 42.4488095 12.789 42.4488095 18.7634146 46.4416667 18.7634146 46.4416667 20.8046829 40.4761905 20.8046829"></polyline>
                        <path d="M2.45238095,44.6437805 L2.45238095,42.2786341 C2.78571429,42.6072927 3.10238095,42.8499024 3.40714286,43.0064634 C3.71666667,43.1618293 4.02142857,43.2407073 4.3297619,43.2407073 C4.81309524,43.2407073 5.19761905,43.0686098 5.48690476,42.7291951 C5.77619048,42.3885854 5.92261905,41.934439 5.92261905,41.3715366 C5.92261905,40.6950976 5.51071429,39.5155122 4.69047619,37.8268049 C4.48452381,37.3977561 4.31785714,37.0667073 4.20357143,36.8264878 C3.46190476,35.2345854 2.97142857,34.0538049 2.73333333,33.2853415 C2.5,32.5120976 2.38095238,31.8237073 2.38095238,31.2189756 C2.38095238,30.1182683 2.69404762,29.223122 3.31547619,28.5299512 C3.93809524,27.8367805 4.73452381,27.4878049 5.70119048,27.4878049 C5.99761905,27.4878049 6.28690476,27.5308293 6.58095238,27.6180732 C6.86904762,27.7029268 7.16666667,27.8367805 7.46785714,28.0172439 L7.46785714,30.1099024 C7.19880952,29.8864146 6.93690476,29.7226829 6.68333333,29.6091463 C6.43333333,29.5003902 6.18809524,29.4454146 5.94642857,29.4454146 C5.475,29.4454146 5.09880952,29.5971951 4.82142857,29.899561 C4.54047619,30.2067073 4.40119048,30.6094634 4.40119048,31.1173902 C4.40119048,31.487878 4.47261905,31.9157317 4.61547619,32.3997561 C4.75833333,32.8813902 4.9952381,33.4873171 5.33214286,34.2055854 C5.50595238,34.6167073 5.77619048,35.1963415 6.13214286,35.9409024 C7.30952381,38.435122 7.8952381,40.2457317 7.8952381,41.3679512 C7.8952381,42.4937561 7.56666667,43.4259512 6.90952381,44.1693171 C6.25119048,44.9126829 5.43095238,45.2831707 4.44880952,45.2831707 C4.12380952,45.2831707 3.7952381,45.2281951 3.46190476,45.1230244 C3.1297619,45.0178537 2.79285714,44.8577073 2.45238095,44.6437805" id="Fill-13" fill="#1A1919"></path>
                        <polyline id="Fill-14" fill="#1A1919" points="14.2857143 44.707122 14.2857143 27.4878049 16.2821429 27.4878049 16.2821429 35.054122 19.5666667 35.054122 19.5666667 27.4878049 21.5630952 27.4878049 21.5630952 44.707122 19.5666667 44.707122 19.5666667 37.0368293 16.2821429 37.0368293 16.2821429 44.707122 14.2857143 44.707122"></polyline>
                        <path d="M29.4678571,36.3854878 C29.4678571,38.6586098 29.6595238,40.376 30.0428571,41.5400488 C30.427381,42.7040976 30.997619,43.2873171 31.7583333,43.2873171 C32.5154762,43.2873171 33.0940476,42.6993171 33.4857143,41.5269024 C33.8821429,40.3556829 34.0797619,38.641878 34.0797619,36.3854878 C34.0797619,34.1386585 33.8821429,32.4200732 33.4821429,31.2309268 C33.0821429,30.0429756 32.5071429,29.4466098 31.7583333,29.4466098 C31.0059524,29.4466098 30.4357143,30.0346098 30.0511905,31.2106098 C29.6630952,32.3866098 29.4678571,34.113561 29.4678571,36.3854878 Z M27.3809524,36.3854878 C27.3809524,33.4909024 27.7571429,31.2823171 28.5059524,29.7657073 C29.2583333,28.2490976 30.347619,27.4878049 31.7785714,27.4878049 C33.2130952,27.4878049 34.302381,28.2443171 35.0464286,29.7561463 C35.7952381,31.2739512 36.1678571,33.4825366 36.1678571,36.3854878 C36.1678571,39.2800732 35.7952381,41.4898537 35.0464286,43.0052683 C34.302381,44.5230732 33.2130952,45.2831707 31.7785714,45.2831707 C30.347619,45.2831707 29.2583333,44.5230732 28.5059524,43.0016829 C27.7571429,41.4767073 27.3809524,39.2717073 27.3809524,36.3854878 Z" id="Fill-15" fill="#1A1919"></path>
                        <path d="M43.6630952,35.0290244 L43.7345238,35.0290244 C44.5904762,35.0290244 45.2404762,34.8019512 45.6761905,34.3442195 C46.1154762,33.8900732 46.3333333,33.2136341 46.3333333,32.3232683 C46.3333333,31.4030244 46.1154762,30.7062683 45.6833333,30.223439 C45.247619,29.7441951 44.6142857,29.5051707 43.777381,29.5051707 L43.6630952,29.5051707 L43.6630952,35.0290244 Z M41.6666667,44.707122 L41.6666667,27.4878049 L43.6869048,27.4878049 C45.1809524,27.4878049 46.3416667,27.900122 47.1738095,28.7187805 C48.0047619,29.5386341 48.4214286,30.6847561 48.4214286,32.1511707 C48.4214286,33.5960732 48.0285714,34.7720732 47.2452381,35.6755854 C46.4559524,36.5826829 45.4619048,37.0368293 44.2535714,37.0368293 L43.6630952,37.0368293 L43.6630952,44.707122 L41.6666667,44.707122 Z" id="Fill-16" fill="#1A1919"></path>
                    </g>
                </g>
            </g>
        </g>
    </g>
</svg>