<?xml version="1.0" encoding="UTF-8"?>
<svg width="70px" height="40px" viewBox="0 0 70 40" version="1.1" xmlns="http://www.w3.org/2000/svg" xmlns:xlink="http://www.w3.org/1999/xlink">
    <!-- Generator: Sketch 51.3 (57544) - http://www.bohemiancoding.com/sketch -->
    <title>visa</title>
    <desc>Created with Sketch.</desc>
    <defs>
        <linearGradient x1="-35.5896482%" y1="53.5021744%" x2="148.792945%" y2="53.5021744%" id="linearGradient-1">
            <stop stop-color="#002359" offset="0%"></stop>
            <stop stop-color="#373D8D" offset="100%"></stop>
        </linearGradient>
        <polygon id="path-2" points="0.0526222785 0.078417154 14.4353412 0.078417154 14.4353412 14.9368614 0.0526222785 14.9368614"></polygon>
        <polygon id="path-4" points="0.0830398129 0.0774911932 12.2997771 0.0774911932 12.2997771 15.5 0.0830398129 15.5"></polygon>
        <polygon id="path-6" points="0 0.0737588336 18.5281023 0.0737588336 18.5281023 14.944233 0 14.944233"></polygon>
    </defs>
    <g id="Symbols" stroke="none" stroke-width="1" fill="none" fill-rule="evenodd">
        <g id="11---Footer" transform="translate(-998.000000, -68.000000)">
            <g id="cartões">
                <g transform="translate(998.000000, 68.000000)">
                    <g id="visa">
                        <rect id="Rectangle-12" fill="url(#linearGradient-1)" x="0" y="0" width="70" height="40" rx="3"></rect>
                        <g id="Group-12" transform="translate(10.000000, 12.000000)">
                            <g id="Group-3" transform="translate(34.557895, 0.500000)">
                                <mask id="mask-3" fill="white">
                                    <use xlink:href="#path-2"></use>
                                </mask>
                                <g id="Clip-2"></g>
                                <path d="M9.5547963,9.65135088 C9.15736418,7.82284211 8.7652336,6.01889474 8.37319443,4.21485965 C8.35719843,4.21187719 8.34120243,4.20889474 8.32520642,4.20591228 C7.64194859,6.01433333 6.95887358,7.82284211 6.26802907,9.65135088 L9.5547963,9.65135088 Z M14.4354052,14.9283684 L10.7063257,14.9283684 C10.5698569,14.2991579 10.4235163,13.6836316 10.3079795,13.0628421 C10.2600829,12.8051228 10.1741615,12.7052105 9.87453354,12.7088947 C8.37931861,12.7274035 6.88355526,12.7229298 5.38824893,12.7115263 C5.16183694,12.7097719 5.0718937,12.7815263 5.00297378,12.9793333 C4.79703667,13.571 4.57172155,14.1565263 4.3412877,14.7398596 C4.30993554,14.8189825 4.20619003,14.9275789 4.13525919,14.928193 C2.7873903,14.9394211 1.43943001,14.9365263 0.0526222785,14.9365263 C0.305359121,14.3524912 0.54465932,13.7947719 0.78761575,13.2386316 C2.52551288,9.25924561 4.26414127,5.28029825 6.00267824,1.30126316 C6.37917844,0.439333333 6.94360882,0.0784561404 7.91461189,0.0784561404 C8.99667291,0.0783684211 10.0787339,0.0784561404 11.1884909,0.0784561404 C11.2967153,0.56354386 11.4056709,1.04161404 11.5098734,1.52064912 C12.3650654,5.45301754 13.2182465,9.38582456 14.0755409,13.3177544 C14.1853191,13.8214386 14.3149325,14.3211754 14.4354052,14.8226667 L14.4354052,14.9283684 Z" id="Fill-1" fill="#FEFEFE" mask="url(#mask-3)"></path>
                            </g>
                            <g id="Group-6" transform="translate(23.726316, 0.000000)">
                                <mask id="mask-5" fill="white">
                                    <use xlink:href="#path-4"></use>
                                </mask>
                                <g id="Clip-5"></g>
                                <path d="M9.46298087,0.0774911932 C9.95667163,0.165471307 10.4541219,0.237863352 10.9428611,0.346187216 C11.3889617,0.444999716 11.8257093,0.582738352 12.2997771,0.712374716 C12.0608176,1.78566165 11.8275432,2.83305653 11.5993121,3.85790597 C10.973946,3.6817696 10.3760887,3.47886051 9.76163443,3.34869574 C8.92114975,3.17044574 8.0599418,3.10254517 7.21909034,3.32755937 C6.8773397,3.41906222 6.53127935,3.59475824 6.26233525,3.81616165 C5.80073806,4.19599972 5.79450274,4.74272699 6.23546835,5.14149972 C6.53934858,5.41644858 6.8997135,5.64216733 7.25971163,5.85009631 C8.07818929,6.32284631 8.93765502,6.73394858 9.73302531,7.23884347 C10.6698824,7.8335679 11.3531086,8.65128097 11.4966127,9.75671278 C11.7503353,11.7119145 10.9974202,13.2520509 9.2873832,14.3416304 C8.21206531,15.0267128 6.99526063,15.3327497 5.72728964,15.4460935 C3.95673338,15.604352 2.22129665,15.4138605 0.529690573,14.8800793 C0.416354433,14.8443236 0.305860865,14.799673 0.195367298,14.7562554 C0.162356772,14.7432213 0.133655953,14.7203236 0.0830398129,14.6900281 C0.321999345,13.615244 0.561325661,12.5387866 0.807345778,11.432298 C1.0957294,11.5532156 1.36641572,11.6743974 1.64306227,11.7814003 C2.96467537,12.2929003 4.32956894,12.5268094 5.74406999,12.2723804 C6.11213736,12.2061531 6.4874487,12.0500082 6.79939818,11.8492128 C7.47629736,11.4133634 7.54121806,10.5943293 6.92483818,10.0823889 C6.51972566,9.74596847 6.0328204,9.49744006 5.5712232,9.22733494 C4.85021829,8.80557642 4.08437408,8.4460821 3.40206484,7.97403665 C2.52756098,7.36892017 1.89421736,6.56212756 1.77409572,5.48972131 C1.59428005,3.88415028 2.21469455,2.58030085 3.49797876,1.56725256 C4.61455981,0.685866193 5.94020753,0.29466733 7.35250788,0.13042017 C7.43099958,0.12126108 7.50738227,0.0954571023 7.58468192,0.0774911932 L9.46298087,0.0774911932 Z" id="Fill-4" fill="#FEFEFE" mask="url(#mask-5)"></path>
                            </g>
                            <g id="Group-9" transform="translate(0.000000, 0.500000)">
                                <mask id="mask-7" fill="white">
                                    <use xlink:href="#path-6"></use>
                                </mask>
                                <g id="Clip-8"></g>
                                <path d="M18.5281023,0.0905438596 C18.3215061,0.574315789 18.1259067,1.03545614 17.9276933,1.4957193 C16.0351566,5.88931579 14.1401861,10.2820351 12.2554013,14.6788772 C12.1655337,14.8882632 12.0556555,14.9432632 11.8374315,14.9415965 C10.6429232,14.9318596 9.44823458,14.928 8.25390653,14.9441404 C8.00070898,14.9474737 7.91814261,14.8611579 7.85982334,14.6400175 C6.84712329,10.7996667 5.81756744,6.9634386 4.81640505,3.12019298 C4.63270387,2.41519298 4.26503111,1.93361404 3.57538553,1.63808772 C2.47002365,1.16431579 1.3224772,0.831508772 0.15194557,0.561070175 C0.100206377,0.549140351 0.0486474604,0.535982456 -2.70413899e-05,0.524140351 C0.00583192642,0.0784385965 0.00583192642,0.0784385965 0.441468717,0.0784385965 C2.53194843,0.0784385965 4.62242815,0.0779122807 6.71281772,0.0786140351 C7.70433535,0.0789649123 8.42012094,0.639491228 8.60751777,1.59457895 C9.13825012,4.29835088 9.65762508,7.00414035 10.1818675,9.70905263 C10.2047625,9.82738596 10.2309025,9.94510526 10.2656057,10.1116842 C10.3198687,10.0124737 10.3576365,9.95685965 10.3823343,9.89607018 C11.6807717,6.70019298 12.9794796,3.50449123 14.2712467,0.306070175 C14.3418248,0.131421053 14.4287178,0.0722105263 14.6224243,0.0737894737 C15.8350503,0.0830877193 17.0477665,0.0781754386 18.2603926,0.078877193 C18.3387225,0.078877193 18.4171425,0.0854561404 18.5281023,0.0905438596" id="Fill-7" fill="#FEFEFE" mask="url(#mask-7)"></path>
                            </g>
                            <path d="M17.0210526,15.4916831 C18.1126343,10.4750519 19.1964679,5.49359508 20.2830945,0.5 L24.2421053,0.5 C24.0773229,1.260544 23.9161443,2.00655756 23.7539747,2.75239393 C22.8570866,6.87708698 21.956775,11.0009826 21.0697072,15.1278021 C21.0080827,15.4144237 20.9047447,15.5055047 20.6022082,15.4997457 C19.5172034,15.4791904 18.4315679,15.4916831 17.3462027,15.4916831 L17.0210526,15.4916831 Z" id="Fill-10" fill="#FEFEFE"></path>
                        </g>
                    </g>
                </g>
            </g>
        </g>
    </g>
</svg>